<?xml version="1.0" encoding="utf-8"?>
<!-- Generator: Adobe Illustrator 24.0.2, SVG Export Plug-In . SVG Version: 6.00 Build 0)  -->
<svg version="1.1" id="Layer_1" xmlns="http://www.w3.org/2000/svg" xmlns:xlink="http://www.w3.org/1999/xlink" x="0px" y="0px"
	 viewBox="0 0 283.46 283.46" style="enable-background:new 0 0 283.46 283.46;" xml:space="preserve">
<style type="text/css">
	.st0{fill:#FFFFFF;}
	.st1{fill:#C0BFE0;}
	.st2{fill:#403F4C;}
	.st3{fill:none;stroke:#403F4C;stroke-width:2.2896;stroke-linecap:round;stroke-miterlimit:10;}
	.st4{fill:none;stroke:#403F4C;stroke-width:2.2875;stroke-linecap:round;stroke-linejoin:round;stroke-miterlimit:10;}
	.st5{fill:#403F4C;stroke:#403F4C;stroke-width:1.9654;stroke-linecap:round;stroke-miterlimit:10;}
	.st6{fill:none;stroke:#403F4C;stroke-width:2.0066;stroke-linecap:round;stroke-linejoin:round;stroke-miterlimit:10;}
	.st7{fill:none;stroke:#403F4C;stroke-width:2.128;stroke-linecap:round;stroke-linejoin:round;stroke-miterlimit:10;}
	.st8{fill:#2D2D35;}
	.st9{fill:none;stroke:#403F4C;stroke-width:2.2881;stroke-linecap:round;stroke-linejoin:round;stroke-miterlimit:10;}
	.st10{fill:#828199;}
	.st11{fill:#5E5E6D;}
	.st12{fill:none;stroke:#403F4C;stroke-width:2.327;stroke-linecap:round;stroke-linejoin:round;stroke-miterlimit:10;}
	.st13{fill:#9A9AA8;stroke:#403F4C;stroke-width:2.2881;stroke-linecap:round;stroke-linejoin:round;stroke-miterlimit:10;}
	.st14{fill:#74747C;}
	.st15{fill:#BCBCD3;stroke:#403F4C;stroke-width:2.2881;stroke-miterlimit:10;}
	.st16{fill:#9A9AA8;}
	.st17{fill:none;stroke:#403F4C;stroke-width:2.2881;stroke-miterlimit:10;}
	.st18{fill:#BCBCD3;stroke:#403F4C;stroke-width:1.1123;stroke-linecap:round;stroke-miterlimit:10;}
	.st19{fill:#9393A5;}
	.st20{fill:none;stroke:#403F4C;stroke-width:1.1123;stroke-linecap:round;stroke-miterlimit:10;}
	.st21{fill:#E3E3FF;stroke:#403F4C;stroke-width:1.1123;stroke-linecap:round;stroke-miterlimit:10;}
	.st22{fill:#B8B8CC;}
	.st23{fill:#D3D3EF;stroke:#403F4C;stroke-width:1.1123;stroke-linecap:round;stroke-miterlimit:10;}
	.st24{fill:#B5B5C6;stroke:#403F4C;stroke-width:1.1123;stroke-linecap:round;stroke-miterlimit:10;}
	.st25{opacity:0.2;}
</style>
<g>
	<path class="st0" d="M237.25,157.71c-5.02-16.05-18.17-33.94-21.62-38.34c-7.63-9.75-27.52-22.57-27.52-27.81
		c0-5.24,0.83-22.2,1.84-29.29c1.09-7.61-2.2-25.72-0.75-27.18c1.45-1.45,8.36-7.69,7.47-10.26c-0.89-2.56-6.36-10.92-12.93-8.69
		c-6.58,2.23-6.58,6.47-6.58,6.47s-6.09-3.2-12.26-3.9c-6.17-0.72-31.88-0.34-41.25,0.21c-9.36,0.56-13.37,3.58-13.37,3.58
		s-4.24-7.48-9.02-6.58c-4.8,0.9-11.82,6.02-9.92,10.71c1.89,4.68,6.68,8.46,6.68,8.46s-0.56,11.48-1.78,18.62
		c-1.22,7.13,3.12,38.86,3.12,38.86s-26.75,18.11-37.89,29.25c-11.16,11.16-19.07,29.88-16.17,37.13
		c2.89,7.24,13.04,13.49,24.31,17.84c1.96,0.75,3.94,1.5,5.89,2.22c-0.33,4.83-1.21,18.3-1.21,25.09c0,8.35,1.36,19.74,1.36,19.74
		l131.76,0.38c0,0,0.65-19.35-0.12-28.43c-0.45-5.15-1.18-9.99-1.72-13.22c2.77-0.49,5.2-0.83,6.82-0.83
		c5.1,0,13.96-2.01,17.64-4.18C233.68,175.38,242.26,173.76,237.25,157.71z M116.02,164.13c0.78,0.94,2.48,2.69,1.15,4.48
		c-1.32,1.8-1.38,1.75-0.64,2.54c0.74,0.8,1.86,2.12,0.74,3.6c-1.11,1.49-2.8,2.07-1.85,2.81c0.95,0.74,2.28,2.33,1.59,3.97
		c-0.7,1.64-3.28,4.18-6.88,4.02c-3.61-0.16-20.39-1.43-23.21-2.76c-2.8-1.32,9.43-26.16,9.43-26.16s20.24-2.12,20.98,0.26
		c0.74,2.39,1.48,4.45-0.26,5.19C115.32,162.84,115.22,163.2,116.02,164.13z M190.53,185.99c-3.44,0.64-15.42,0.74-17.15,0.1
		c-1.75-0.63-3.5-1.32-4.64-2.88c-1.13-1.57,0.82-3.11,1.19-4.1c0.38-1.01-1-1.75-1.64-3.13s0.74-3.23,0.95-3.97
		c0.21-0.75-0.47-1.96-0.9-3.03c-0.43-1.05,0.95-4.82,0.53-5.35c-0.43-0.53-1.27-3.39,0.27-5.03c1.54-1.64,22.03,0.64,22.03,0.64
		l4.51,25.53C195.67,184.77,193.97,185.35,190.53,185.99z"/>
	<path class="st1" d="M168.6,185.27c0,0,1.06,2.67,2.36,3.18c1.3,0.5,3.05,1.38,3.05,2.78s0.69,4.56,2.57,4.53
		c1.88-0.03-0.24-8.63-0.24-8.63L168.6,185.27z"/>
	<path class="st1" d="M108.19,194.86c0,0-1.39-0.06-1.83-1.51c-0.55-1.83-1.71-4.43-3.97-4.43c-3.61,0-12.24-1.03-15.49-1.59
		c-3.26-0.56-6.51,2.07-7.11,6.67c-0.6,4.61,1.15,23.52,1.15,23.52l-6.16,0.6c0,0-1.15-16.25-0.41-24.35
		c0.74-8.1,1.22-13.98,1.22-13.98l31.67,6.2l1.59,0.9L108.19,194.86z"/>
	<path class="st2" d="M112.19,188.01c0.24,4.48,0.4,7.43,0.4,7.43s-0.85,1.01-2.79,1.01c-1.95,0-2.72-1.01-2.72-1.01
		s0.13-2.85,0.31-7.21c0.43,0.06,1.17,0.12,2.19,0.1C110.69,188.31,111.67,188.12,112.19,188.01z"/>
	<path class="st2" d="M113.86,135.86c-0.21,3.37-2.88,4.99-3.45,7.84c-0.4,2.02,0.87,27.39,1.65,41.84l-4.57,0.54
		c0.57-13.87,1.47-38.58,0.77-41.85c-0.65-3.08-2.88-5.08-3.52-7.75c-0.66-2.69,0.85-24.54,1.21-24.54c0.33,0,0.3,13.71,0.29,16.79
		c0,0.34,0.27,0.61,0.61,0.61h0.25c0.34,0,0.61-0.27,0.61-0.59c0.04-3.07,0.24-16.88,0.53-16.88c0.28,0,0.45,13.81,0.48,16.87
		c0,0.34,0.27,0.61,0.61,0.61s0.62-0.27,0.61-0.61c-0.01-3.09-0.03-16.92,0.25-16.92c0.29,0,0.71,13.88,0.8,16.94
		c0.01,0.33,0.28,0.58,0.61,0.58h0.35c0.34,0,0.61-0.27,0.62-0.61c0-1.51,0.02-5.52-0.01-7.75c-0.03-2.8-0.48-9.17-0.16-9.09
		c0.33,0.09,0.81,5.93,1.01,8.89C113.57,123.74,114.07,132.49,113.86,135.86z"/>
	<path class="st2" d="M175.03,187.24c-0.01-13.21-0.03-37.83-0.03-39.54c0-2.34-1.5-6-1.5-17.84c0-11.85,2.68-16.02,3.45-17.07
		c0.76-1.05,2.43-1.35,2.43-0.4c0,0.93-0.17,28.75-0.21,31.22c-0.03,2.48-0.53,3.77-0.68,6.89c-0.11,2.24,1.12,24.42,1.82,36.77
		L175.03,187.24z"/>
	<path class="st2" d="M180.78,195.47c0,0-0.29,1.09-2.75,1.09s-2.99-1.09-2.99-1.09s0-2.13-0.01-5.5c0.46,0.13,1.35,0.3,2.89,0.3
		c1.2,0,2.03-0.09,2.54-0.18C180.66,193.37,180.78,195.47,180.78,195.47z"/>
	<path class="st0" d="M110.34,166.48"/>
	<path class="st1" d="M68.05,139.68c0,0,1.38-0.54,3.39,1.76c2.01,2.3,6.73,7.19,9.7,2.72s4.93-7.94,6.27-8.36
		s-6.02,15.51-6.02,15.51s-7.69-3.3-10.45-6.48S68.05,139.68,68.05,139.68z"/>
	<path class="st3" d="M75.41,178.81c-0.54,3.67-0.92,6.87-1.09,10.79c-1.26,29.64,0.38,34.88,0.38,34.88"/>
	<path class="st3" d="M81.54,151.82c3.15-9.45,6.5-15.73,6.5-15.73"/>
	<path class="st3" d="M204.81,182.76c0.5,5.9,1.54,11.12,1.48,20.97c-0.05,9.85,0,23.2,0,23.2"/>
	<path class="st1" d="M194.22,141.06c0,0,4.56,7.44,9.16,7.73c4.6,0.29,12.17-5.06,12.88-6.48s-2.06,6.24-4.48,7.87
		c-2.42,1.63-11.01,7.05-12.39,6.67C197.99,156.48,193.47,142.31,194.22,141.06z"/>
	<path class="st3" d="M193.72,141.27c0,0,2.9,8.29,5.44,16.43"/>
	<path class="st1" d="M102.71,16.44c0,0-7.76,2.37-7.59,8.56c0.17,6.19,3.04,9.09,3.04,9.09s-7.27-4.6-6.81-9.66
		c0.46-5.06,7.11-8.19,8.49-8.49C101.2,15.64,102.71,16.44,102.71,16.44z"/>
	<path class="st0" d="M117.17,168.62c1.32-1.79-0.37-3.54-1.15-4.48c-0.8-0.93-0.7-1.29,1.05-2.03c1.74-0.74,1-2.8,0.26-5.19
		c-0.74-2.38-20.98-0.26-20.98-0.26s-12.23,24.83-9.43,26.16c2.81,1.32,19.6,2.6,23.21,2.76c3.6,0.16,6.19-2.39,6.88-4.02
		c0.68-1.64-0.64-3.23-1.59-3.97c-0.95-0.74,0.74-1.32,1.85-2.81c1.12-1.48,0-2.8-0.74-3.6
		C115.79,170.36,115.85,170.42,117.17,168.62z M97.73,184.24l-0.08-0.03c0.27-0.02,0.55-0.04,0.81-0.08
		c0.82-0.13,1.59-0.13,2.33-0.06L97.73,184.24z"/>
	<path class="st1" d="M184.63,16.24c0,0,8.81,0.33,10.98,5.63c2.17,5.3-1.5,8.95-2.56,9.59s-3.96,2.56-3.96,2.56
		s4.17-5.63,3.68-9.48C192.27,20.59,187.11,16.52,184.63,16.24z"/>
	<path class="st0" d="M195.67,184.77c0,0-1.7,0.58-5.15,1.22c-3.44,0.64-15.42,0.74-17.15,0.1c-1.75-0.63-3.5-1.32-4.64-2.88
		c-1.13-1.57,0.82-3.11,1.19-4.1c0.38-1.01-1-1.75-1.64-3.13s0.74-3.23,0.95-3.97c0.21-0.75-0.47-1.96-0.9-3.03
		c-0.43-1.05,0.95-4.82,0.53-5.35c-0.43-0.53-1.27-3.39,0.27-5.03c1.54-1.64,22.03,0.64,22.03,0.64L195.67,184.77z"/>
	<path class="st1" d="M175.31,179.72c0,0-4.21,0.26-4.21,2.26c0,2.01,2.66,2.4,4.65,2.66s8.32,0.31,10.68,0.23s5.06,0.45,3.92,0.87
		s-9.56,1.77-13.98,0.82c-4.42-0.95-7.52-1.51-7.63-3.36c-0.11-1.85,0.42-3.6,2.17-3.68C172.65,179.45,175.31,179.72,175.31,179.72z
		"/>
	<path class="st1" d="M230.56,142.1c0,0,10.03,20.07,7.8,27.42c-2.23,7.36-18.95,12.15-27.54,12.37
		c-8.58,0.22-12.49,1.67-12.49,1.67s4.01-3.46,12.26-4.68c8.25-1.23,21.74-1.9,23.08-10.81
		C235.02,159.16,229.22,145.67,230.56,142.1z"/>
	<path class="st1" d="M173.9,172.79c0,0-3.65,0.54-3.81,2.2c-0.16,1.67,3.2,1.75,4.63,1.87c1.43,0.12,5.01,1.07,5.4,2.11
		c0.4,1.03-8.38-0.54-8.38-0.54s-3.48-1.37-3.5-2.98c-0.02-1.61,1.25-3.04,1.25-3.04L173.9,172.79z"/>
	<path class="st1" d="M174.43,158.69c0,0-2.04,0.48-3.06,0.78c-1.02,0.3-2.15,1.55-1.54,2.37c0.61,0.82,5.02,0.89,7.4,1.42
		c2.38,0.53,4.32,1.44,4.34,1.97c0.03,0.53-9.69-0.9-10.88-1.38c-1.19-0.48-3.34-1.69-2.81-3.58c0.53-1.88,3.5-2.44,4.5-2.33
		S174.43,158.69,174.43,158.69z"/>
	<path class="st1" d="M174.49,165.72c0,0-3.06,0.38-3.77,1.45c-0.72,1.07-0.52,2.46,1.41,2.66s3.48,0.12,5.38,0.38
		s4.27,2.01,4.27,2.01l-11.18-1.03l-2.34-2.54l1.31-3.02l4.69-1.13L174.49,165.72z"/>
	<path class="st1" d="M165.75,159.46c0,0-0.99,2.66-0.12,4.11c0.87,1.45,0.87,1.67,0.66,2.78c-0.22,1.11-0.42,2.72-1.45,2.84
		s-2.26-1.91-2.38-3.26c-0.12-1.35-1.27,1.81-1.03,2.78c0.24,0.97,1.57,2.62,2.98,2.5s2.24,0.54,3.08-0.56
		c0.83-1.09,1.11-0.73,1.21-2.05c0.1-1.31,0.93-3.28,0.62-3.95c-0.32-0.68-1.59-2.07-1.65-3.32c-0.06-1.25,0.48-2.26-0.44-2.26
		C166.31,159.08,165.75,159.46,165.75,159.46z"/>
	<path class="st3" d="M178.66,179.46c-1.29-0.26-4.01-0.66-6.12-0.72c-2.4-0.51-4.51-1.44-4.57-3.29c-0.12-3.61,2.07-3.54,5.68-3.58
		c3.61-0.04,7.02,0.73,7.82,0.95"/>
	<path class="st3" d="M172.16,171.91c-2.63-0.62-4.05-1.27-4.05-3.52c0-2.26,1.54-3.77,4.64-3.77c3.18,0,7.87,1.07,9.57,1.9"/>
	<path class="st4" d="M172.84,164.63c-1.93-0.36-5.66-0.9-5.38-3.56c0.28-2.66,1.53-3.51,6.51-3.38c5.03,0.13,8.92,2.03,18.19,1.18
		c9.27-0.85,12.35-3.2,16.05-5.77c4.56-3.18,6.73-5.92,8.78-10.99"/>
	<g>
		<g>
			<circle class="st1" cx="120.79" cy="48.26" r="5.4"/>
			<g>
				<circle class="st5" cx="121.97" cy="47.08" r="5.4"/>
			</g>
			<ellipse class="st0" cx="121.97" cy="49.74" rx="1.67" ry="1.87"/>
		</g>
		<g>
			<circle class="st1" cx="161.64" cy="48.26" r="5.4"/>
			<g>
				<circle class="st5" cx="162.82" cy="47.08" r="5.4"/>
			</g>
			<ellipse class="st0" cx="162.82" cy="49.74" rx="1.67" ry="1.87"/>
		</g>
	</g>
	<path class="st2" d="M145.52,65.23c-2.97,0-3.78,1.46-3.78,1.46s-0.64-1.46-3.61-1.46c-3,0-4.91,2.45-4.91,5.47v3.3
		c0,1.06,0.87,1.93,1.93,1.93h13.31c1.06,0,1.91-0.87,1.91-1.93v-3.3C150.38,67.68,148.47,65.23,145.52,65.23z M146.37,73.46
		c0,0.05-0.02,0.07-0.07,0.07h-0.35c0,0-0.12,0.19-0.33,0.26c-0.19,0.09-0.35,0.09-0.35,0.09h-7.01c0,0-0.28-0.05-0.47-0.17
		c-0.17-0.12-0.21-0.19-0.21-0.19h-0.38c-0.02,0-0.07-0.02-0.07-0.07v-0.02c0-0.05,0.05-0.07,0.07-0.07h0.64
		c0,0,0.17-3.68,3.59-3.92v-0.02c-0.02-0.02,0-0.07,0.05-0.07h0.12c0.02-0.07,0.02-0.12,0.02-0.17c0-0.07,0-0.12-0.05-0.19h-0.09
		c-0.05,0-0.07-0.02-0.07-0.05v-0.07c0,0-0.24-0.09-0.24-0.28c0-0.19,0.26-0.38,0.61-0.38c0.35,0,0.59,0.19,0.59,0.38
		c0,0.19-0.24,0.28-0.24,0.28v0.07c0,0.02-0.02,0.05-0.07,0.05h-0.12l-0.02,0.02c-0.02,0.09-0.02,0.19,0,0.28l0.02,0.05h0.09
		c0.05,0,0.07,0.02,0.05,0.07v0.02c3.47,0.21,3.59,3.92,3.59,3.92h0.64c0.05,0,0.07,0.02,0.07,0.07V73.46z"/>
	<line class="st6" x1="141.8" y1="75.49" x2="141.8" y2="82.91"/>
	<path class="st6" d="M151.47,82.91l-2.46-1.07c-1.34-0.58-2.85-0.61-4.21-0.09l-3,1.16l-3-1.16c-1.36-0.53-2.87-0.49-4.21,0.09
		l-2.46,1.07"/>
	<path class="st7" d="M168.02,170.11c0,0-1.43,1.65-3.36,1.65c-1.93,0-3.2-2.22-3.16-4.47c0.04-2.24,0.13-2.52,0.5-4.61
		c0.4-2.24,1.29-3.48,2.86-3.93c1.57-0.46,3.1,0.08,3.1,0.08"/>
	<path class="st1" d="M114.67,178.05c-1.75-0.08-4.4,0.19-4.4,0.19s4.21,0.26,4.21,2.26s-2.66,2.4-4.65,2.66
		c-1,0.13-7.73,0.25-14.47-1.11c-6.66-1.34-13.35-4.16-13.35-4.16c-6.86-2.34-14.34-6.1-22.7-11.12
		c-8.36-5.02-10.45-11.75-5.43-26.21c5.02-14.46,19.19-23.2,27.72-30.14c8.53-6.94,9.79-11.35,9.79-11.35s-21.8,14.32-27.57,19.84
		c-5.77,5.52-18.34,20.69-19.18,32.98c-0.84,12.29,13.21,20.07,20.73,22.91c5.93,2.24,18.4,6.9,29.64,9.17
		c-0.1,0.1-0.05,0.21,0.22,0.3c1.14,0.42,9.56,1.77,13.98,0.82c4.42-0.95,7.52-1.51,7.63-3.36
		C116.95,179.87,116.42,178.13,114.67,178.05z"/>
	<path class="st8" d="M180.47,190.09c-0.52,0.09-1.35,0.18-2.54,0.18c-1.55,0-2.43-0.17-2.89-0.3v-2.72l5.27,0.03
		C180.37,188.28,180.42,189.22,180.47,190.09z"/>
	<path class="st8" d="M112.19,188.01c-0.53,0.11-1.5,0.3-2.61,0.33c-1.02,0.02-1.76-0.04-2.19-0.1c0.03-0.68,0.06-1.41,0.09-2.16
		l4.57-0.54C112.1,186.41,112.15,187.24,112.19,188.01z"/>
	<polygon class="st0" points="74.28,253.87 71.94,267.84 207.87,267.2 206.91,254.08 	"/>
	<path class="st1" d="M111.68,171.31c0,0,3.65,0.54,3.81,2.2s-3.2,1.75-4.63,1.87c-1.43,0.12-5.01,1.07-5.4,2.11
		c-0.4,1.03,8.38-0.54,8.38-0.54s3.48-1.37,3.5-2.98c0.02-1.61-1.25-3.04-1.25-3.04L111.68,171.31z"/>
	<path class="st1" d="M74.33,254.27l-2.4,13.57l5.38-0.03c0,0,2.18-3.77,4.97-5.84c2.78-2.07,16.6,0.95,25.42,1.27
		c8.82,0.32,40.15,0.9,61.76-1.54c21.61-2.44,38.35-5.22,38.35-7.36C207.81,252.2,74.33,254.27,74.33,254.27z"/>
	<path class="st9" d="M207.83,266.06c0,0,0,0.43,0-8.63c0-9.06-0.97-5.53-0.97-5.53l-132.69,0.85c0,0-0.5-1.03-1.59,8.49
		c-0.36,3.12-0.56,5.46-0.56,5.46"/>
	<path class="st9" d="M104.95,178.46c1.6-0.43,6.1-1.35,8.14-1.11c2.4,0.28,3.76,0.45,3.93,2.84c0.16,2.4-0.54,3.55-3.51,4.35
		c-2.97,0.79-10.19,1.67-18.95-0.2c-1.13-0.24-6.84-1.46-13.04-3.32c-6.2-1.87-11.6-4.24-20.23-7.84
		c-8.71-3.63-16.73-11.67-16.73-19.03s4.23-19.7,18.87-34.46s27.85-18.61,35.56-26.9c1.19-1.35-1.33-12.36-2.33-28.79
		c-1.01-16.59,2.68-23.56,0.99-29.68c-3.74-2.56-11.66-9.37-2.13-16.19c8.55-6.11,12.84,0.43,14.61,4.75
		c5.49-3.11,11.85-4.89,18.62-4.89h29.97c6.76,0,13.09,1.83,18.57,5c1.75-4.33,6.04-11.03,14.65-4.86c9.65,6.9,1.42,13.8-2.26,16.28
		c-2.58,5.99,1.43,10.47,0.51,30.03c-0.84,17.79-2.83,25.62-1.85,28.34c5.98,8.68,17,12.5,30.14,29.66s26.14,44.92,17.58,51.31
		s-16.15,7.43-25.24,8.16c-6.55,0.52-11.93,2.24-19.03,3.83s-16.76,1.09-19.73,0.29c-2.97-0.79-3.67-1.95-3.51-4.35
		s1.52-2.57,3.93-2.84c2.04-0.24,6.55,0.68,8.14,1.11"/>
	<path class="st1" d="M111.15,157.2c0,0,2.04,0.48,3.06,0.78c1.02,0.3,2.15,1.55,1.54,2.37s-5.02,0.89-7.4,1.42
		c-2.38,0.53-4.32,1.44-4.34,1.97c-0.03,0.53,9.69-0.9,10.88-1.38c1.19-0.48,3.34-1.69,2.81-3.58c-0.53-1.88-3.5-2.44-4.5-2.33
		C112.18,156.57,111.15,157.2,111.15,157.2z"/>
	<path class="st1" d="M111.09,164.24c0,0,3.06,0.38,3.77,1.45c0.72,1.07,0.52,2.46-1.41,2.66c-1.93,0.2-3.48,0.12-5.38,0.38
		s-4.27,2.01-4.27,2.01l11.18-1.03l2.34-2.54l-1.31-3.02l-4.69-1.13L111.09,164.24z"/>
	<path class="st1" d="M119.83,157.98c0,0,0.99,2.66,0.12,4.11c-0.87,1.45-0.87,1.67-0.66,2.78s0.42,2.72,1.45,2.84
		c1.03,0.12,2.26-1.91,2.38-3.26c0.12-1.35,1.27,1.81,1.03,2.78c-0.24,0.97-1.57,2.62-2.98,2.5c-1.41-0.12-2.24,0.54-3.08-0.56
		s-1.11-0.73-1.21-2.05c-0.1-1.31-0.93-3.28-0.62-3.95c0.32-0.68,1.59-2.07,1.65-3.32c0.06-1.25-0.48-2.26,0.44-2.26
		S119.83,157.98,119.83,157.98z"/>
	<path class="st3" d="M106.91,177.98c1.29-0.26,4.01-0.66,6.12-0.72c2.4-0.51,4.51-1.44,4.57-3.29c0.12-3.61-2.07-3.54-5.68-3.58
		c-3.61-0.04-7.02,0.73-7.83,0.95"/>
	<path class="st3" d="M113.42,170.43c2.63-0.62,4.05-1.27,4.05-3.52c0-2.26-1.54-3.77-4.64-3.77c-3.18,0-7.87,1.07-9.57,1.9"/>
	<path class="st4" d="M112.73,163.14c1.93-0.36,5.66-0.9,5.38-3.56c-0.28-2.66-1.53-3.51-6.51-3.38
		c-5.03,0.13-12.12,1.13-17.63,0.23s-8.05-2.17-13.51-5.19c-5.46-3.02-10.52-6.33-12.57-11.4"/>
	<path class="st7" d="M117.56,168.63c0,0,1.43,1.65,3.36,1.65s3.2-2.22,3.16-4.47c-0.04-2.24-0.13-2.52-0.5-4.61
		c-0.4-2.24-1.29-3.48-2.86-3.93c-1.57-0.46-3.1,0.08-3.1,0.08"/>
	<polyline class="st10" points="133.91,267.55 133.91,255.41 149.82,255.41 149.82,267.49 	"/>
	<path class="st11" d="M149.44,257.86v3.15c0,0-3.43,0.25-6.32,0.33c-2.7,0.08-5.66,1.04-5.66,1.04v5.15l-3.59,0.01l0.45-9.61
		L149.44,257.86z"/>
	<polyline class="st12" points="133.91,266.38 133.91,255.41 149.82,255.41 149.82,266.35 	"/>
	<path class="st13" d="M230,231.71c-18.47-4.68-51.04-7.78-88.13-7.78s-69.66,3.1-88.13,7.78h-16.1v8.92
		c0,9.22,46.67,16.7,104.23,16.7s104.23-7.48,104.23-16.7v-8.92H230z"/>
	<path class="st14" d="M61.62,242.71c0,0,16.15,6.67,30.24,8.53s49.44,5.46,49.44,5.46s-37.5,1.27-60.62-2.38
		s-42.51-8.18-43.14-13.35c-0.64-5.16,0.64-7.15,0.64-7.15s1.91,3.34,10.57,5.64C57.41,241.76,61.62,242.71,61.62,242.71z"/>
	<path class="st9" d="M230,231.71c-18.47-4.68-51.04-7.78-88.13-7.78s-69.66,3.1-88.13,7.78h-16.1v8.92
		c0,9.22,46.67,16.7,104.23,16.7s104.23-7.48,104.23-16.7v-8.92H230z"/>
	<ellipse class="st15" cx="141.86" cy="231.71" rx="104.23" ry="16.7"/>
	<path class="st16" d="M87.52,218.16c0,0-35.83,4.97-35.83,13.43c0,8.46,88.66,16.13,90.02,16.13c1.35,0,0.32,1.51-3.73,1.27
		c-4.05-0.24-57.92-3.26-68.64-5.01c-10.73-1.75-31.38-6.36-31.22-12.95s35.04-11.52,39.96-12.16S87.52,218.16,87.52,218.16z"/>
	<ellipse class="st17" cx="141.86" cy="231.71" rx="104.23" ry="16.7"/>
	<g>
		<ellipse class="st16" cx="128.89" cy="234.72" rx="28.37" ry="5.96"/>
		<path class="st18" d="M157.28,234.9c0,1.62-3.49,3.83-15.57,3.83c-12.08,0-15.57-2.21-15.57-3.83"/>
		<path class="st19" d="M135.98,236.77c0,0,4.45,0.83,7.33,0.89s9.02-0.2,9.02-0.2s-3.81,1.51-9.14,1.37s-13.63-0.68-15.41-1.99
			c-1.79-1.31-1.37-1.65-1.37-1.65L135.98,236.77z"/>
		<path class="st20" d="M157.28,234.9c0,1.62-3.49,3.83-15.57,3.83c-12.08,0-15.57-2.21-15.57-3.83"/>
		<path class="st21" d="M184.54,218c0,6.9-19.11,18.69-42.68,18.69S99.19,224.9,99.19,218"/>
		<path class="st22" d="M101.45,222.18c0,0,4.74,5.61,10.41,7.94c5.67,2.33,10.38,4.32,14.59,5.16s17.61,1.3,17.61,1.3
			s-13.03-2.81-18.72-4.53s-9.24-3.26-12.5-5.03c-1-0.54-4.08-1.98-5.24-2.57C104.96,223.13,101.45,222.18,101.45,222.18z"/>
		<path class="st20" d="M184.54,218c0,6.9-19.11,18.69-42.68,18.69S99.19,224.9,99.19,218"/>
		<path class="st23" d="M184.54,218.14c0,3.69-8.14,6.92-20.36,8.72c-6.49,0.96-14.13,1.51-22.32,1.51
			c-8.18,0-15.82-0.55-22.31-1.51c-12.22-1.8-20.37-5.03-20.37-8.72c0-5.65,19.11-10.23,42.68-10.23
			C165.43,207.91,184.54,212.49,184.54,218.14z"/>
		<path class="st24" d="M164.18,226.87c-6.49,0.96-14.13,1.51-22.32,1.51c-8.18,0-15.82-0.55-22.31-1.51
			c0.88-2.68,10.53-4.8,22.31-4.8S163.3,224.18,164.18,226.87z"/>
		<path class="st25" d="M123.31,209.18c0,0-14.54,3.22-15.89,7.59c-1.35,4.37,9.3,7.55,15.13,8.62s11.32,2.62,11.32,2.62
			s-15.53,0-24.95-3.34c-9.41-3.34-10.88-5.36-8.94-8.34c1.95-2.98,10.41-5.52,15.65-6.28C120.89,209.3,123.31,209.18,123.31,209.18
			z"/>
		<path class="st20" d="M184.54,218.14c0,3.69-8.14,6.92-20.36,8.72c-6.49,0.96-14.13,1.51-22.32,1.51
			c-8.18,0-15.82-0.55-22.31-1.51c-12.22-1.8-20.37-5.03-20.37-8.72c0-5.65,19.11-10.23,42.68-10.23
			C165.43,207.91,184.54,212.49,184.54,218.14z"/>
	</g>
</g>
</svg>
