<svg width="266" height="181" viewBox="0 0 266 181" fill="none" xmlns="http://www.w3.org/2000/svg">
<path d="M3.53613 147.8C3.53613 147.8 12.1661 137.78 29.0061 126.6C45.4061 115.71 55.2761 117.67 79.4061 116.47C103.536 115.27 165.006 115.67 187.676 116.47C210.346 117.27 214.876 116.07 232.606 127.27C250.336 138.47 262.076 145.94 263.006 148.2C263.936 150.47 258.476 156.87 258.476 156.87L240.076 179.54H23.2761L3.53613 147.8Z" fill="#6BC8F2"/>
<mask id="mask0_2417_224" style="mask-type:luminance" maskUnits="userSpaceOnUse" x="3" y="115" width="261" height="65">
<path d="M3.53613 147.8C3.53613 147.8 12.1661 137.78 29.0061 126.6C45.4061 115.71 55.2761 117.67 79.4061 116.47C103.536 115.27 165.006 115.67 187.676 116.47C210.346 117.27 214.876 116.07 232.606 127.27C250.336 138.47 262.076 145.94 263.006 148.2C263.936 150.47 258.476 156.87 258.476 156.87L240.076 179.54H23.2761L3.53613 147.8Z" fill="white"/>
</mask>
<g mask="url(#mask0_2417_224)">
<path d="M53.926 155.201C53.926 155.201 36.876 151.131 41.136 144.801C45.396 138.471 52.606 128.871 66.466 128.871C80.326 128.871 185.936 128.871 198.996 128.871C212.056 128.871 226.196 142.381 225.926 147.621C225.656 152.871 217.896 154.601 212.716 155.201C207.536 155.801 53.926 155.201 53.926 155.201Z" fill="#9888B7" stroke="#403F4C" stroke-width="1.9843" stroke-miterlimit="10" stroke-linecap="round" stroke-linejoin="round"/>
</g>
<mask id="mask1_2417_224" style="mask-type:luminance" maskUnits="userSpaceOnUse" x="3" y="115" width="261" height="65">
<path d="M3.53613 147.8C3.53613 147.8 12.1661 137.78 29.0061 126.6C45.4061 115.71 55.2761 117.67 79.4061 116.47C103.536 115.27 165.006 115.67 187.676 116.47C210.346 117.27 214.876 116.07 232.606 127.27C250.336 138.47 262.076 145.94 263.006 148.2C263.936 150.47 258.476 156.87 258.476 156.87L240.076 179.54H23.2761L3.53613 147.8Z" fill="white"/>
</mask>
<g mask="url(#mask1_2417_224)">
<path d="M27.3763 155.5C27.3763 155.5 41.9063 127.53 58.6563 125.73C75.4063 123.93 116.476 124.9 118.876 117.95C121.276 111 60.0764 114.6 60.0764 114.6L12.7363 123.8L-0.993652 146.7L27.3763 155.5Z" fill="#4DA3C1"/>
</g>
<mask id="mask2_2417_224" style="mask-type:luminance" maskUnits="userSpaceOnUse" x="3" y="115" width="261" height="65">
<path d="M3.53613 147.8C3.53613 147.8 12.1661 137.78 29.0061 126.6C45.4061 115.71 55.2761 117.67 79.4061 116.47C103.536 115.27 165.006 115.67 187.676 116.47C210.346 117.27 214.876 116.07 232.606 127.27C250.336 138.47 262.076 145.94 263.006 148.2C263.936 150.47 258.476 156.87 258.476 156.87L240.076 179.54H23.2761L3.53613 147.8Z" fill="white"/>
</mask>
<g mask="url(#mask2_2417_224)">
<path d="M240.436 153.311C240.436 153.311 223.306 128.401 205.306 126.101C187.306 123.801 157.566 123.311 157.566 123.311L159.606 115.711C159.606 115.711 207.516 116.101 216.216 118.701C224.906 121.301 261.406 146.001 261.406 146.001L240.436 153.311Z" fill="#4DA3C1"/>
</g>
<path d="M3.53613 147.8C3.53613 147.8 12.1661 137.78 29.0061 126.6C45.4061 115.71 55.2761 117.67 79.4061 116.47C103.536 115.27 165.006 115.67 187.676 116.47C210.346 117.27 214.876 116.07 232.606 127.27C250.336 138.47 262.076 145.94 263.006 148.2C263.936 150.47 258.476 156.87 258.476 156.87L240.076 179.54H23.2761L3.53613 147.8Z" stroke="#403F4C" stroke-width="1.9843" stroke-miterlimit="10" stroke-linecap="round" stroke-linejoin="round"/>
<path d="M49.8063 109.9V120.1C49.8063 120.1 49.2563 121.85 49.5563 123.6C49.8563 125.35 50.2063 126 50.2063 126H51.8563C51.8563 126 52.0063 123.3 52.9563 122.15C53.9063 121 53.9563 120.45 53.9563 120.45L52.5563 118.5V109.9H49.8063Z" fill="#403F4C"/>
<path d="M210.856 109.301V119.551C210.856 119.551 210.306 119.801 209.856 120.201C209.406 120.601 209.106 121.301 209.106 121.301C209.106 121.301 210.356 121.701 211.156 122.851C211.956 124.001 213.206 126.101 213.206 126.101H214.876C214.876 126.101 216.396 124.101 214.876 121.901C213.356 119.701 212.956 119.701 212.956 119.701V109.301H210.856Z" fill="#403F4C"/>
<path d="M53.7062 110.47H49.4062C49.4062 110.47 40.6062 83.27 32.7362 62.47C24.8662 41.67 15.2662 26.07 17.9362 22.2C20.6062 18.33 55.4062 1 121.676 1C187.946 1 234.206 15 237.206 19C240.206 23 230.006 38.2 224.006 68.2C218.006 98.2 214.206 111.6 214.206 111.6H209.206C209.206 111.6 204.006 105.5 188.506 103.6C173.006 101.7 149.026 102.5 127.616 102.5C106.206 102.5 75.8062 102.7 66.2062 104.7C56.6062 106.7 53.7062 110.47 53.7062 110.47Z" fill="#92E3FF"/>
<mask id="mask3_2417_224" style="mask-type:luminance" maskUnits="userSpaceOnUse" x="17" y="1" width="221" height="111">
<path d="M53.7062 110.47H49.4062C49.4062 110.47 40.6062 83.27 32.7362 62.47C24.8662 41.67 15.2662 26.07 17.9362 22.2C20.6062 18.33 55.4062 1 121.676 1C187.946 1 234.206 15 237.206 19C240.206 23 230.006 38.2 224.006 68.2C218.006 98.2 214.206 111.6 214.206 111.6H209.206C209.206 111.6 204.006 105.5 188.506 103.6C173.006 101.7 149.026 102.5 127.616 102.5C106.206 102.5 75.8062 102.7 66.2062 104.7C56.6062 106.7 53.7062 110.47 53.7062 110.47Z" fill="white"/>
</mask>
<g mask="url(#mask3_2417_224)">
<path d="M64.736 93.8009C60.466 92.7309 48.066 84.6009 46.336 81.4009C44.606 78.2009 32.336 37.2709 33.936 34.8709C35.536 32.4709 60.466 25.6709 66.066 24.7409C68.956 24.2609 96.276 21.2909 125.266 20.9409C152.446 20.6209 181.376 22.8909 184.736 23.4009C191.666 24.4709 220.606 31.2709 221.936 33.8009C223.266 36.3309 215.806 75.9309 214.606 77.4009C213.406 78.8709 198.476 91.2709 194.736 91.8009C191.006 92.3309 148.626 91.8009 128.016 91.8009C107.406 91.8009 69.006 94.8709 64.736 93.8009Z" fill="#67BCD3"/>
</g>
<mask id="mask4_2417_224" style="mask-type:luminance" maskUnits="userSpaceOnUse" x="17" y="1" width="221" height="111">
<path d="M53.7062 110.47H49.4062C49.4062 110.47 40.6062 83.27 32.7362 62.47C24.8662 41.67 15.2662 26.07 17.9362 22.2C20.6062 18.33 55.4062 1 121.676 1C187.946 1 234.206 15 237.206 19C240.206 23 230.006 38.2 224.006 68.2C218.006 98.2 214.206 111.6 214.206 111.6H209.206C209.206 111.6 204.006 105.5 188.506 103.6C173.006 101.7 149.026 102.5 127.616 102.5C106.206 102.5 75.8062 102.7 66.2062 104.7C56.6062 106.7 53.7062 110.47 53.7062 110.47Z" fill="white"/>
</mask>
<g mask="url(#mask4_2417_224)">
<path opacity="0.15" d="M129.406 -2.59953C129.406 -2.59953 80.0763 6.47047 59.2763 13.4005C38.4763 20.3305 39.5163 56.0705 53.9263 72.6005C68.3363 89.1305 101.406 97.1305 116.076 97.4005C130.746 97.6705 127.616 102.5 127.616 102.5L72.6063 111.6H32.6063L11.0063 20.9005L26.2063 10.2005L105.606 -5.26953L129.406 -2.59953Z" fill="black"/>
</g>
<path d="M53.7062 110.47H49.4062C49.4062 110.47 40.6062 83.27 32.7362 62.47C24.8662 41.67 15.2662 26.07 17.9362 22.2C20.6062 18.33 55.4062 1 121.676 1C187.946 1 234.206 15 237.206 19C240.206 23 230.006 38.2 224.006 68.2C218.006 98.2 214.206 111.6 214.206 111.6H209.206C209.206 111.6 204.006 105.5 188.506 103.6C173.006 101.7 149.026 102.5 127.616 102.5C106.206 102.5 75.8062 102.7 66.2062 104.7C56.6062 106.7 53.7062 110.47 53.7062 110.47Z" stroke="#403F4C" stroke-width="1.9843" stroke-miterlimit="10" stroke-linecap="round" stroke-linejoin="round"/>
<path d="M262.766 147.8C262.766 147.8 249.946 145.13 241.676 152.07C233.406 159 236.346 179.57 236.346 179.57H263.016C263.016 179.57 265.146 172.67 265.146 164.77C265.146 156.87 264.826 150 262.766 147.8Z" fill="#C8C8C8"/>
<mask id="mask5_2417_224" style="mask-type:luminance" maskUnits="userSpaceOnUse" x="235" y="147" width="31" height="33">
<path d="M262.766 147.8C262.766 147.8 249.946 145.13 241.676 152.07C233.406 159 236.346 179.57 236.346 179.57H263.016C263.016 179.57 265.146 172.67 265.146 164.77C265.146 156.87 264.826 150 262.766 147.8Z" fill="white"/>
</mask>
<g mask="url(#mask5_2417_224)">
<path d="M265.706 149.561L234.306 151.661L234.206 156.161L267.006 153.461L265.706 149.561Z" fill="#F8FFCF"/>
</g>
<mask id="mask6_2417_224" style="mask-type:luminance" maskUnits="userSpaceOnUse" x="235" y="147" width="31" height="33">
<path d="M262.766 147.8C262.766 147.8 249.946 145.13 241.676 152.07C233.406 159 236.346 179.57 236.346 179.57H263.016C263.016 179.57 265.146 172.67 265.146 164.77C265.146 156.87 264.826 150 262.766 147.8Z" fill="white"/>
</mask>
<g mask="url(#mask6_2417_224)">
<path d="M265.706 157.26L234.306 159.36L234.206 163.86L267.006 161.16L265.706 157.26Z" fill="#F8FFCF"/>
</g>
<mask id="mask7_2417_224" style="mask-type:luminance" maskUnits="userSpaceOnUse" x="235" y="147" width="31" height="33">
<path d="M262.766 147.8C262.766 147.8 249.946 145.13 241.676 152.07C233.406 159 236.346 179.57 236.346 179.57H263.016C263.016 179.57 265.146 172.67 265.146 164.77C265.146 156.87 264.826 150 262.766 147.8Z" fill="white"/>
</mask>
<g mask="url(#mask7_2417_224)">
<path d="M265.706 165.16L234.306 167.26L234.206 171.76L267.006 169.06L265.706 165.16Z" fill="#F8FFCF"/>
</g>
<mask id="mask8_2417_224" style="mask-type:luminance" maskUnits="userSpaceOnUse" x="235" y="147" width="31" height="33">
<path d="M262.766 147.8C262.766 147.8 249.946 145.13 241.676 152.07C233.406 159 236.346 179.57 236.346 179.57H263.016C263.016 179.57 265.146 172.67 265.146 164.77C265.146 156.87 264.826 150 262.766 147.8Z" fill="white"/>
</mask>
<g mask="url(#mask8_2417_224)">
<path d="M265.706 172.959L234.306 175.059L234.206 179.559L267.006 176.859L265.706 172.959Z" fill="#F8FFCF"/>
</g>
<mask id="mask9_2417_224" style="mask-type:luminance" maskUnits="userSpaceOnUse" x="235" y="147" width="31" height="33">
<path d="M262.766 147.8C262.766 147.8 249.946 145.13 241.676 152.07C233.406 159 236.346 179.57 236.346 179.57H263.016C263.016 179.57 265.146 172.67 265.146 164.77C265.146 156.87 264.826 150 262.766 147.8Z" fill="white"/>
</mask>
<g mask="url(#mask9_2417_224)">
<path opacity="0.15" d="M259.876 147.621C259.876 147.621 262.476 168.801 255.676 173.401C248.876 178.001 235.976 177.501 235.976 177.501L236.876 179.561H262.486C262.486 179.561 265.896 166.111 264.786 158.401C263.676 150.691 262.246 147.301 262.246 147.301L259.876 147.621Z" fill="#1D1D1B"/>
</g>
<path d="M262.766 147.8C262.766 147.8 249.946 145.13 241.676 152.07C233.406 159 236.346 179.57 236.346 179.57H263.016C263.016 179.57 265.146 172.67 265.146 164.77C265.146 156.87 264.826 150 262.766 147.8Z" stroke="#403F4C" stroke-width="1.9843" stroke-miterlimit="10" stroke-linecap="round" stroke-linejoin="round"/>
<path d="M220.206 145.801L215.706 139.971L214.006 144.401L220.196 149.101" fill="#C8C8C8"/>
<path d="M220.206 145.801L215.706 139.971L214.006 144.401L220.196 149.101" stroke="#403F4C" stroke-width="1.0006" stroke-miterlimit="10" stroke-linecap="round" stroke-linejoin="round"/>
<path d="M187.786 132.199C187.786 132.199 196.506 131.779 202.006 132.629C207.516 133.489 208.336 134.459 208.336 134.459L207.536 142.789L186.006 139.959L187.786 132.199Z" fill="#B1B1B1"/>
<mask id="mask10_2417_224" style="mask-type:luminance" maskUnits="userSpaceOnUse" x="186" y="132" width="23" height="11">
<path d="M187.786 132.199C187.786 132.199 196.506 131.779 202.006 132.629C207.516 133.489 208.336 134.459 208.336 134.459L207.536 142.789L186.006 139.959L187.786 132.199Z" fill="white"/>
</mask>
<g mask="url(#mask10_2417_224)">
<path d="M205.336 133.53C205.336 133.53 203.856 134.8 201.656 135.25C200.266 135.53 193.106 135.65 189.106 132.2C187.066 132.08 186.836 134.26 187.166 134.91C187.486 135.55 183.806 139.1 186.506 140.45C191.786 143.08 205.146 143.7 206.276 142.8C207.976 141.43 209.706 134.57 207.906 133.57C206.106 132.57 205.336 133.53 205.336 133.53Z" fill="#4D4763"/>
</g>
<path d="M187.786 132.199C187.786 132.199 196.506 131.779 202.006 132.629C207.516 133.489 208.336 134.459 208.336 134.459L207.536 142.789L186.006 139.959L187.786 132.199Z" stroke="#403F4C" stroke-width="1.0006" stroke-miterlimit="10" stroke-linecap="round" stroke-linejoin="round"/>
<path d="M191.606 137.399C191.606 137.399 188.136 135.189 187.876 133.099C187.606 130.999 188.146 129.539 182.146 128.939C176.146 128.339 160.546 127.869 160.546 127.869L161.466 136.979L191.606 137.399Z" fill="#6F6191"/>
<mask id="mask11_2417_224" style="mask-type:luminance" maskUnits="userSpaceOnUse" x="160" y="127" width="32" height="11">
<path d="M191.606 137.399C191.606 137.399 188.136 135.189 187.876 133.099C187.606 130.999 188.146 129.539 182.146 128.939C176.146 128.339 160.546 127.869 160.546 127.869L161.466 136.979L191.606 137.399Z" fill="white"/>
</mask>
<g mask="url(#mask11_2417_224)">
<path d="M166.756 128.35C166.756 128.35 166.626 132.78 163.066 131.42C159.506 130.05 161.706 135.05 161.706 135.05L170.456 138.1L171.006 128.87L166.756 128.35Z" fill="#574E75"/>
</g>
<path d="M191.606 137.399C191.606 137.399 188.136 135.189 187.876 133.099C187.606 130.999 188.146 129.539 182.146 128.939C176.146 128.339 160.546 127.869 160.546 127.869L161.466 136.979L191.606 137.399Z" stroke="#403F4C" stroke-width="0.9921" stroke-miterlimit="10" stroke-linecap="round" stroke-linejoin="round"/>
<path d="M3.53632 147.8C3.53632 147.8 16.3563 145.13 24.6263 152.07C32.8963 159.01 29.9563 179.57 29.9563 179.57H3.29632C3.29632 179.57 1.74632 172.64 1.16632 164.77C0.606323 157.26 1.47632 150 3.53632 147.8Z" fill="#C8C8C8"/>
<mask id="mask12_2417_224" style="mask-type:luminance" maskUnits="userSpaceOnUse" x="1" y="147" width="30" height="33">
<path d="M3.53632 147.8C3.53632 147.8 16.3563 145.13 24.6263 152.07C32.8963 159.01 29.9563 179.57 29.9563 179.57H3.29632C3.29632 179.57 1.74632 172.64 1.16632 164.77C0.606323 157.26 1.47632 150 3.53632 147.8Z" fill="white"/>
</mask>
<g mask="url(#mask12_2417_224)">
<path d="M0.606153 149.561L32.0062 151.661L32.1062 156.161L-0.693848 153.461L0.606153 149.561Z" fill="#F8FFCF"/>
</g>
<mask id="mask13_2417_224" style="mask-type:luminance" maskUnits="userSpaceOnUse" x="1" y="147" width="30" height="33">
<path d="M3.53632 147.8C3.53632 147.8 16.3563 145.13 24.6263 152.07C32.8963 159.01 29.9563 179.57 29.9563 179.57H3.29632C3.29632 179.57 1.74632 172.64 1.16632 164.77C0.606323 157.26 1.47632 150 3.53632 147.8Z" fill="white"/>
</mask>
<g mask="url(#mask13_2417_224)">
<path d="M0.606153 157.26L32.0062 159.36L32.1062 163.86L-0.693848 161.16L0.606153 157.26Z" fill="#F8FFCF"/>
</g>
<mask id="mask14_2417_224" style="mask-type:luminance" maskUnits="userSpaceOnUse" x="1" y="147" width="30" height="33">
<path d="M3.53632 147.8C3.53632 147.8 16.3563 145.13 24.6263 152.07C32.8963 159.01 29.9563 179.57 29.9563 179.57H3.29632C3.29632 179.57 1.74632 172.64 1.16632 164.77C0.606323 157.26 1.47632 150 3.53632 147.8Z" fill="white"/>
</mask>
<g mask="url(#mask14_2417_224)">
<path d="M0.606153 165.16L32.0062 167.26L32.1062 171.76L-0.693848 169.06L0.606153 165.16Z" fill="#F8FFCF"/>
</g>
<mask id="mask15_2417_224" style="mask-type:luminance" maskUnits="userSpaceOnUse" x="1" y="147" width="30" height="33">
<path d="M3.53632 147.8C3.53632 147.8 16.3563 145.13 24.6263 152.07C32.8963 159.01 29.9563 179.57 29.9563 179.57H3.29632C3.29632 179.57 1.74632 172.64 1.16632 164.77C0.606323 157.26 1.47632 150 3.53632 147.8Z" fill="white"/>
</mask>
<g mask="url(#mask15_2417_224)">
<path d="M0.606153 172.959L32.0062 175.059L32.1062 179.559L-0.693848 176.859L0.606153 172.959Z" fill="#F8FFCF"/>
</g>
<mask id="mask16_2417_224" style="mask-type:luminance" maskUnits="userSpaceOnUse" x="1" y="147" width="30" height="33">
<path d="M3.53632 147.8C3.53632 147.8 16.3563 145.13 24.6263 152.07C32.8963 159.01 29.9563 179.57 29.9563 179.57H3.29632C3.29632 179.57 1.74632 172.64 1.16632 164.77C0.606323 157.26 1.47632 150 3.53632 147.8Z" fill="white"/>
</mask>
<g mask="url(#mask16_2417_224)">
<path opacity="0.15" d="M5.90611 147.621C5.90611 147.621 3.30611 168.801 10.1061 173.401C16.9061 178.001 29.8061 177.501 29.8061 177.501L28.9061 179.561H3.29611C3.29611 179.561 -0.11389 166.111 0.99611 158.401C2.10611 150.691 3.53611 147.301 3.53611 147.301L5.90611 147.621Z" fill="#1D1D1B"/>
</g>
<path d="M3.53632 147.8C3.53632 147.8 16.3563 145.13 24.6263 152.07C32.8963 159.01 29.9563 179.57 29.9563 179.57H3.29632C3.29632 179.57 1.74632 172.64 1.16632 164.77C0.606323 157.26 1.47632 150 3.53632 147.8Z" stroke="#403F4C" stroke-width="1.9843" stroke-miterlimit="10" stroke-linecap="round" stroke-linejoin="round"/>
<path d="M205.206 154.199C205.206 154.199 201.806 136.799 209.006 132.199C216.206 127.599 221.606 128.599 225.206 130.799C228.806 132.999 228.406 137.949 227.006 139.969C225.606 141.999 224.806 145.199 224.806 145.199L220.206 145.799L215.806 140.599C215.806 140.599 214.206 143.399 214.206 145.499C214.206 147.599 214.706 154.199 214.706 154.199H205.206Z" fill="#6A607F"/>
<mask id="mask17_2417_224" style="mask-type:luminance" maskUnits="userSpaceOnUse" x="204" y="128" width="25" height="27">
<path d="M205.206 154.199C205.206 154.199 201.806 136.799 209.006 132.199C216.206 127.599 221.606 128.599 225.206 130.799C228.806 132.999 228.406 137.949 227.006 139.969C225.606 141.999 224.806 145.199 224.806 145.199L220.206 145.799L215.806 140.599C215.806 140.599 214.206 143.399 214.206 145.499C214.206 147.599 214.706 154.199 214.706 154.199H205.206V154.199Z" fill="white"/>
</mask>
<g mask="url(#mask17_2417_224)">
<path d="M219.976 145.5C219.976 145.5 218.736 139.53 221.106 136.83C223.256 134.39 223.466 133.51 223.136 133.53C222.196 133.6 220.976 134 219.266 135.8C217.706 137.44 215.816 140.6 215.816 140.6L219.976 145.5Z" fill="#504966"/>
</g>
<mask id="mask18_2417_224" style="mask-type:luminance" maskUnits="userSpaceOnUse" x="204" y="128" width="25" height="27">
<path d="M205.206 154.199C205.206 154.199 201.806 136.799 209.006 132.199C216.206 127.599 221.606 128.599 225.206 130.799C228.806 132.999 228.406 137.949 227.006 139.969C225.606 141.999 224.806 145.199 224.806 145.199L220.206 145.799L215.806 140.599C215.806 140.599 214.206 143.399 214.206 145.499C214.206 147.599 214.706 154.199 214.706 154.199H205.206V154.199Z" fill="white"/>
</mask>
<g mask="url(#mask18_2417_224)">
<path d="M204.716 143.129C204.716 143.129 209.156 143.589 211.256 145.699C213.356 147.809 214.456 150.839 214.456 150.839L214.356 154.199H205.206L204.716 143.129Z" fill="#5C576D"/>
</g>
<path d="M205.206 154.199C205.206 154.199 201.806 136.799 209.006 132.199C216.206 127.599 221.606 128.599 225.206 130.799C228.806 132.999 228.406 137.949 227.006 139.969C225.606 141.999 224.806 145.199 224.806 145.199L220.206 145.799L215.806 140.599C215.806 140.599 214.206 143.399 214.206 145.499C214.206 147.599 214.706 154.199 214.706 154.199H205.206Z" stroke="#403F4C" stroke-width="1.0006" stroke-miterlimit="10" stroke-linecap="round" stroke-linejoin="round"/>
<path d="M200.006 146.499C200.006 146.499 201.406 142.499 193.906 142.699C186.406 142.899 181.506 142.099 175.206 142.199C168.906 142.299 166.806 142.399 165.256 143.299C163.706 144.199 163.456 144.749 160.606 144.599C157.756 144.449 156.606 132.199 156.606 132.199C156.606 132.199 161.556 132.649 163.956 133.949C166.356 135.249 169.306 136.699 175.156 136.699C181.006 136.699 190.256 136.849 194.506 136.969C198.756 137.089 203.006 137.249 203.906 139.099C204.806 140.949 204.186 146.699 204.186 146.699L200.006 146.499Z" fill="#8173AD" stroke="#403F4C" stroke-width="0.9921" stroke-miterlimit="10" stroke-linecap="round" stroke-linejoin="round"/>
<path d="M161.456 136.971C161.456 136.971 171.256 137.101 171.856 138.101C172.456 139.101 171.706 141.151 169.106 141.101C166.506 141.051 162.006 140.651 162.006 140.651L161.456 136.971Z" fill="#998DCE"/>
<path d="M104.306 127.919C104.306 127.919 79.9162 127.319 75.5562 128.049C71.1962 128.779 64.8862 131.149 62.8962 131.549C60.8962 131.949 54.6862 132.939 55.2762 133.939C55.8662 134.939 62.8162 135.069 66.9562 135.069C71.0962 135.069 83.3662 134.199 82.9262 135.069C82.4862 135.939 82.9962 138.199 84.7762 138.139C86.5562 138.079 105.626 138.669 105.626 138.669L104.306 127.919Z" fill="#BFBBCC"/>
<mask id="mask19_2417_224" style="mask-type:luminance" maskUnits="userSpaceOnUse" x="55" y="127" width="51" height="12">
<path d="M104.306 127.919C104.306 127.919 79.9162 127.319 75.5562 128.049C71.1962 128.779 64.8862 131.149 62.8962 131.549C60.8962 131.949 54.6862 132.939 55.2762 133.939C55.8662 134.939 62.8162 135.069 66.9562 135.069C71.0962 135.069 83.3662 134.199 82.9262 135.069C82.4862 135.939 82.9962 138.199 84.7762 138.139C86.5562 138.079 105.626 138.669 105.626 138.669L104.306 127.919Z" fill="white"/>
</mask>
<g mask="url(#mask19_2417_224)">
<path d="M84.2063 126.6C84.2063 126.6 84.2063 131.87 81.2063 131.93C78.2063 131.99 73.3363 132.73 71.7363 131.93C70.1363 131.13 71.4063 129.86 66.9363 129.86C62.4663 129.86 54.2863 130.42 53.4163 132.27C52.5363 134.12 51.5363 137.45 62.2763 136.78C73.0063 136.12 100.806 140.32 100.806 140.32L104.406 138.39L104.076 127.39L84.2063 126.6Z" fill="#8A83B2"/>
</g>
<path d="M104.306 127.919C104.306 127.919 79.9162 127.319 75.5562 128.049C71.1962 128.779 64.8862 131.149 62.8962 131.549C60.8962 131.949 54.6862 132.939 55.2762 133.939C55.8662 134.939 62.8162 135.069 66.9562 135.069C71.0962 135.069 83.3662 134.199 82.9262 135.069C82.4862 135.939 82.9962 138.199 84.7762 138.139C86.5562 138.079 105.626 138.669 105.626 138.669L104.306 127.919Z" stroke="#403F4C" stroke-width="0.9921" stroke-miterlimit="10" stroke-linecap="round" stroke-linejoin="round"/>
<path d="M212.726 179.561H53.9263V155.201C53.9263 150.011 58.1363 145.801 63.3263 145.801C63.3263 145.801 86.9263 144.801 130.926 144.801C174.926 144.801 203.326 145.801 203.326 145.801C208.516 145.801 212.726 150.011 212.726 155.201V179.561Z" fill="#9A9FB3"/>
<mask id="mask20_2417_224" style="mask-type:luminance" maskUnits="userSpaceOnUse" x="53" y="144" width="160" height="36">
<path d="M212.726 179.561H53.9263V155.201C53.9263 150.011 58.1363 145.801 63.3263 145.801C63.3263 145.801 86.9263 144.801 130.926 144.801C174.926 144.801 203.326 145.801 203.326 145.801C208.516 145.801 212.726 150.011 212.726 155.201V179.561Z" fill="white"/>
</mask>
<g mask="url(#mask20_2417_224)">
<path d="M203.256 158.071H63.3961C61.6661 158.071 60.2661 156.671 60.2661 154.941C60.2661 153.211 61.6661 151.811 63.3961 151.811H203.266C204.996 151.811 206.396 153.211 206.396 154.941C206.396 156.661 204.986 158.071 203.256 158.071Z" fill="#7C7B9E" fill-opacity="0.67"/>
</g>
<mask id="mask21_2417_224" style="mask-type:luminance" maskUnits="userSpaceOnUse" x="53" y="144" width="160" height="36">
<path d="M212.726 179.561H53.9263V155.201C53.9263 150.011 58.1363 145.801 63.3263 145.801C63.3263 145.801 86.9263 144.801 130.926 144.801C174.926 144.801 203.326 145.801 203.326 145.801C208.516 145.801 212.726 150.011 212.726 155.201V179.561Z" fill="white"/>
</mask>
<g mask="url(#mask21_2417_224)">
<path d="M203.256 166.74H63.3961C61.6661 166.74 60.2661 165.34 60.2661 163.61C60.2661 161.88 61.6661 160.48 63.3961 160.48H203.266C204.996 160.48 206.396 161.88 206.396 163.61C206.396 165.34 204.986 166.74 203.256 166.74Z" fill="#7C7B9E" fill-opacity="0.67"/>
</g>
<mask id="mask22_2417_224" style="mask-type:luminance" maskUnits="userSpaceOnUse" x="53" y="144" width="160" height="36">
<path d="M212.726 179.561H53.9263V155.201C53.9263 150.011 58.1363 145.801 63.3263 145.801C63.3263 145.801 86.9263 144.801 130.926 144.801C174.926 144.801 203.326 145.801 203.326 145.801C208.516 145.801 212.726 150.011 212.726 155.201V179.561Z" fill="white"/>
</mask>
<g mask="url(#mask22_2417_224)">
<path d="M203.256 175.42H63.3961C61.6661 175.42 60.2661 174.02 60.2661 172.29C60.2661 170.56 61.6661 169.16 63.3961 169.16H203.266C204.996 169.16 206.396 170.56 206.396 172.29C206.396 174.02 204.986 175.42 203.256 175.42Z" fill="#7C7B9E" fill-opacity="0.67"/>
</g>
<mask id="mask23_2417_224" style="mask-type:luminance" maskUnits="userSpaceOnUse" x="53" y="144" width="160" height="36">
<path d="M212.726 179.561H53.9263V155.201C53.9263 150.011 58.1363 145.801 63.3263 145.801C63.3263 145.801 86.9263 144.801 130.926 144.801C174.926 144.801 203.326 145.801 203.326 145.801C208.516 145.801 212.726 150.011 212.726 155.201V179.561Z" fill="white"/>
</mask>
<g mask="url(#mask23_2417_224)">
<path opacity="0.15" d="M66.7361 146.331C66.7361 146.331 59.0061 150.161 59.0061 162.181C59.0061 174.201 75.1361 179.401 75.1361 179.401H53.9561V152.331C53.9561 152.331 56.0261 146.761 60.4461 146.251C64.8661 145.741 66.7361 146.331 66.7361 146.331Z" fill="#1D1D1B"/>
</g>
<mask id="mask24_2417_224" style="mask-type:luminance" maskUnits="userSpaceOnUse" x="53" y="144" width="160" height="36">
<path d="M212.726 179.561H53.9263V155.201C53.9263 150.011 58.1363 145.801 63.3263 145.801C63.3263 145.801 86.9263 144.801 130.926 144.801C174.926 144.801 203.326 145.801 203.326 145.801C208.516 145.801 212.726 150.011 212.726 155.201V179.561Z" fill="white"/>
</mask>
<g mask="url(#mask24_2417_224)">
<path opacity="0.15" d="M71.336 145.801C71.336 145.801 68.846 149.071 78.066 153.271C83.936 155.931 81.806 164.601 81.406 169.801C81.006 175.001 80.876 179.561 80.876 179.561H96.006L96.676 144.801L71.336 145.801Z" fill="#1D1D1B"/>
</g>
<mask id="mask25_2417_224" style="mask-type:luminance" maskUnits="userSpaceOnUse" x="53" y="144" width="160" height="36">
<path d="M212.726 179.561H53.9263V155.201C53.9263 150.011 58.1363 145.801 63.3263 145.801C63.3263 145.801 86.9263 144.801 130.926 144.801C174.926 144.801 203.326 145.801 203.326 145.801C208.516 145.801 212.726 150.011 212.726 155.201V179.561Z" fill="white"/>
</mask>
<g mask="url(#mask25_2417_224)">
<path opacity="0.15" d="M200.076 145.4C200.076 145.4 197.956 152.65 192.356 153.98C186.756 155.31 181.936 155.42 182.336 158.6C182.736 161.78 182.266 179.27 182.266 179.27H176.266L172.796 145.4H187.466H200.076Z" fill="#1D1D1B"/>
</g>
<path d="M212.726 179.561H53.9263V155.201C53.9263 150.011 58.1363 145.801 63.3263 145.801C63.3263 145.801 86.9263 144.801 130.926 144.801C174.926 144.801 203.326 145.801 203.326 145.801C208.516 145.801 212.726 150.011 212.726 155.201V179.561Z" stroke="#403F4C" stroke-width="1.9843" stroke-miterlimit="10" stroke-linecap="round" stroke-linejoin="round"/>
<path d="M50.4662 136.801C50.4662 136.801 45.8862 136.871 45.9562 137.741C46.0262 138.611 45.2862 142.141 45.9562 142.411C46.6262 142.681 50.5362 142.811 53.7962 143.411C57.0462 144.011 57.6362 144.941 63.2562 145.081C68.8762 145.211 92.9762 145.081 92.9762 145.081L91.9362 137.801C91.9362 137.801 74.8562 137.931 68.7262 137.871C62.5962 137.811 53.2762 136.921 50.4662 136.801Z" fill="#BFBBCC"/>
<mask id="mask26_2417_224" style="mask-type:luminance" maskUnits="userSpaceOnUse" x="45" y="136" width="48" height="10">
<path d="M50.4662 136.801C50.4662 136.801 45.8862 136.871 45.9562 137.741C46.0262 138.611 45.2862 142.141 45.9562 142.411C46.6262 142.681 50.5362 142.811 53.7962 143.411C57.0462 144.011 57.6362 144.941 63.2562 145.081C68.8762 145.211 92.9762 145.081 92.9762 145.081L91.9362 137.801C91.9362 137.801 74.8562 137.931 68.7262 137.871C62.5962 137.811 53.2762 136.921 50.4662 136.801Z" fill="white"/>
</mask>
<g mask="url(#mask26_2417_224)">
<path d="M48.936 136.801C48.936 136.801 50.466 138.471 58.466 139.471C66.466 140.471 80.666 140.261 81.796 141.501C82.926 142.741 83.066 144.411 76.866 144.071C70.666 143.741 61.936 143.541 58.996 144.801C56.066 146.071 61.066 149.671 66.666 149.671C72.266 149.671 88.796 146.871 88.796 146.871L87.196 136.281L48.936 136.801Z" fill="#857EAA"/>
</g>
<path d="M50.4662 136.801C50.4662 136.801 45.8862 136.871 45.9562 137.741C46.0262 138.611 45.2862 142.141 45.9562 142.411C46.6262 142.681 50.5362 142.811 53.7962 143.411C57.0462 144.011 57.6362 144.941 63.2562 145.081C68.8762 145.211 92.9762 145.081 92.9762 145.081L91.9362 137.801C91.9362 137.801 74.8562 137.931 68.7262 137.871C62.5962 137.811 53.2762 136.921 50.4662 136.801Z" stroke="#403F4C" stroke-width="0.9921" stroke-miterlimit="10" stroke-linecap="round" stroke-linejoin="round"/>
<path d="M48.3963 136C47.7963 135.53 47.8063 134.6 50.8363 134.67C53.8663 134.74 55.8663 134.4 59.0363 134.27C62.2163 134.14 65.6163 134.54 64.6563 133.87C63.6963 133.2 61.9963 132.94 62.8863 132.67C63.7763 132.4 68.2863 132.94 68.7263 132.2C69.1663 131.47 70.2063 131.2 69.8363 132.2C69.4663 133.2 67.9163 134.07 68.9463 134.13C69.9763 134.2 87.2463 134.36 86.8763 135.09C86.5063 135.82 88.6463 138.09 88.5063 138.49C88.3563 138.89 61.9263 138.66 58.3063 138.13C54.6763 137.6 49.5763 136.93 48.3963 136Z" fill="#7770A0"/>
<mask id="mask27_2417_224" style="mask-type:luminance" maskUnits="userSpaceOnUse" x="48" y="131" width="41" height="8">
<path d="M48.3963 136C47.7963 135.53 47.8063 134.6 50.8363 134.67C53.8663 134.74 55.8663 134.4 59.0363 134.27C62.2163 134.14 65.6163 134.54 64.6563 133.87C63.6963 133.2 61.9963 132.94 62.8863 132.67C63.7763 132.4 68.2863 132.94 68.7263 132.2C69.1663 131.47 70.2063 131.2 69.8363 132.2C69.4663 133.2 67.9163 134.07 68.9463 134.13C69.9763 134.2 87.2463 134.36 86.8763 135.09C86.5063 135.82 88.6463 138.09 88.5063 138.49C88.3563 138.89 61.9263 138.66 58.3063 138.13C54.6763 137.6 49.5763 136.93 48.3963 136Z" fill="white"/>
</mask>
<g mask="url(#mask27_2417_224)">
<path d="M81.9362 134.129C81.9362 134.129 81.9362 136.649 79.0662 136.789C76.1962 136.929 61.4662 136.999 64.3362 138.459C67.1962 139.929 89.1362 142.049 89.1962 140.949C89.2662 139.859 86.9962 134.189 86.9962 134.189L81.9362 134.129Z" fill="#66628C"/>
</g>
<path d="M48.3963 136C47.7963 135.53 47.8063 134.6 50.8363 134.67C53.8663 134.74 55.8663 134.4 59.0363 134.27C62.2163 134.14 65.6163 134.54 64.6563 133.87C63.6963 133.2 61.9963 132.94 62.8863 132.67C63.7763 132.4 68.2863 132.94 68.7263 132.2C69.1663 131.47 70.2063 131.2 69.8363 132.2C69.4663 133.2 67.9163 134.07 68.9463 134.13C69.9763 134.2 87.2463 134.36 86.8763 135.09C86.5063 135.82 88.6463 138.09 88.5063 138.49C88.3563 138.89 61.9263 138.66 58.3063 138.13C54.6763 137.6 49.5763 136.93 48.3963 136Z" stroke="#403F4C" stroke-width="0.9921" stroke-miterlimit="10" stroke-linecap="round" stroke-linejoin="round"/>
<path d="M224.806 145.199V148.399L220.196 149.099L220.206 145.799L224.806 145.199Z" fill="#B1B1B1" stroke="#403F4C" stroke-width="1.0006" stroke-miterlimit="10" stroke-linecap="round" stroke-linejoin="round"/>
<path d="M198.866 132.37C195.446 121.44 186.496 109.26 184.146 106.26C178.946 99.6203 165.406 90.8903 165.406 87.3203C165.406 83.7503 165.976 72.2003 166.656 67.3703C167.396 62.1903 165.156 49.8603 166.146 48.8603C167.136 47.8703 171.836 43.6203 171.236 41.8703C170.626 40.1303 166.906 34.4303 162.436 35.9503C157.956 37.4703 157.956 40.3603 157.956 40.3603C157.956 40.3603 153.806 38.1803 149.606 37.7003C145.406 37.2103 127.896 37.4703 121.516 37.8403C115.146 38.2203 112.416 40.2803 112.416 40.2803C112.416 40.2803 109.526 35.1903 106.276 35.8003C103.006 36.4103 98.2263 39.9003 99.5163 43.0903C100.806 46.2803 104.066 48.8503 104.066 48.8503C104.066 48.8503 103.686 56.6703 102.856 61.5303C102.026 66.3903 104.976 87.9903 104.976 87.9903C104.976 87.9903 86.7563 100.32 79.1763 107.91C71.5763 115.51 66.1863 128.26 68.1663 133.19C70.1363 138.12 77.0463 142.38 84.7163 145.34C86.0463 145.85 87.3963 146.36 88.7263 146.85C88.5063 150.14 87.9063 159.31 87.9063 163.94C87.9063 169.63 88.1763 178.52 88.1763 178.52L177.796 179.49C177.796 179.49 178.326 164.73 177.796 158.54C177.486 155.03 177.676 151.48 177.306 149.28C179.196 148.95 180.846 148.71 181.946 148.71C185.416 148.71 191.456 147.34 193.956 145.86C196.436 144.41 202.276 143.3 198.866 132.37Z" fill="white"/>
<path d="M97.5362 117.141C97.5362 117.141 87.7362 135.981 87.8162 156.581C87.8962 177.181 88.2262 179.861 88.2262 179.861H122.446C122.446 174.791 97.7562 177.791 94.3262 167.941C89.9162 155.281 100.896 119.851 97.5362 117.141Z" fill="#C0BFE0"/>
<path d="M89.2962 144.631C84.6262 143.041 83.3862 141.961 77.6862 138.551C71.9962 135.131 72.4862 130.781 75.9062 120.931C79.3262 111.081 92.1862 101.191 98.4562 97.1012C105.666 92.4012 104.956 88.0312 104.956 88.0312C104.956 88.0312 84.6862 102.211 80.7562 105.971C76.8262 109.731 68.2662 120.061 67.6962 128.431C67.1262 136.801 76.6962 142.101 81.8162 144.031L88.5862 147.191L89.2962 144.631Z" fill="#C0BFE0"/>
<path d="M194.306 121.74C194.306 121.74 201.136 135.41 199.616 140.41C198.096 145.42 186.716 148.68 180.866 148.83C175.026 148.98 176.526 149.13 176.526 149.13C176.526 149.13 175.096 147.61 180.716 146.78C186.336 145.94 195.516 145.49 196.436 139.42C197.346 133.36 193.396 124.17 194.306 121.74Z" fill="#C0BFE0"/>
<path d="M83.6462 120.101C83.6462 120.101 84.5862 119.731 85.9562 121.301C87.3262 122.871 90.5362 126.201 92.5662 123.151C94.5962 120.101 95.9262 117.741 96.8362 117.461C97.7462 117.171 92.7362 128.021 92.7362 128.021C92.7362 128.021 87.4962 125.771 85.6162 123.611C83.7362 121.441 83.6462 120.101 83.6462 120.101Z" fill="#C0BFE0"/>
<path d="M169.566 121.041C169.566 121.041 172.676 126.111 175.806 126.301C178.936 126.491 184.096 122.851 184.576 121.891C185.056 120.921 183.176 126.141 181.526 127.251C179.876 128.361 174.026 132.051 173.086 131.791C172.136 131.541 169.056 121.891 169.566 121.041Z" fill="#C0BFE0"/>
<path d="M169.226 121.18C169.226 121.18 171.196 126.83 172.926 132.37L176.776 149.44C177.116 153.46 177.826 157.01 177.786 163.72C177.756 170.43 177.786 179.52 177.786 179.52H88.1763C88.1763 179.52 87.0563 174.28 87.9163 154.1C88.0363 151.43 88.2863 149.25 88.6563 146.75L92.8263 128.37C94.9763 121.93 97.2563 117.66 97.2563 117.66" stroke="#403F4C" stroke-width="1.5591" stroke-miterlimit="10" stroke-linecap="round"/>
<path d="M107.246 36.1696C107.246 36.1696 101.966 37.7796 102.076 41.9996C102.196 46.2196 104.146 48.1896 104.146 48.1896C104.146 48.1896 99.1962 45.0596 99.5062 41.6096C99.8162 38.1596 104.346 36.0296 105.286 35.8296C106.216 35.6296 107.246 36.1696 107.246 36.1696Z" fill="#C0BFE0"/>
<path d="M163.036 36.041C163.036 36.041 169.036 36.261 170.516 39.871C171.996 43.481 169.496 45.961 168.776 46.401C168.056 46.841 166.076 48.141 166.076 48.141C166.076 48.141 168.916 44.311 168.586 41.681C168.236 39.001 164.726 36.231 163.036 36.041Z" fill="#C0BFE0"/>
<path d="M172.926 132.37C174.996 132.01 176.566 130.99 179.086 129.24C182.196 127.07 183.666 125.21 185.066 121.76" stroke="#403F4C" stroke-width="1.5577" stroke-miterlimit="10" stroke-linecap="round" stroke-linejoin="round"/>
<path d="M88.6162 146.84C84.3962 145.57 83.5362 144.9 79.0462 142.9C73.1162 140.43 67.6562 134.95 67.6562 129.94C67.6562 124.93 70.5363 116.52 80.5063 106.47C90.4763 96.4203 99.4662 93.8003 104.726 88.1503C105.536 87.2303 103.816 79.7303 103.136 68.5403C102.446 57.2403 104.956 52.5003 103.806 48.3303C101.256 46.5903 95.8663 41.9503 102.356 37.3103C108.176 33.1503 111.096 37.6003 112.306 40.5403C116.046 38.4203 120.376 37.2103 124.986 37.2103H145.396C149.996 37.2103 154.306 38.4603 158.046 40.6103C159.236 37.6603 162.156 33.1003 168.026 37.3003C174.596 42.0003 168.996 46.7003 166.486 48.3903C164.726 52.4703 167.456 55.5203 166.836 68.8403C166.266 80.9503 164.906 86.2903 165.576 88.1403C169.646 94.0503 177.156 96.6503 186.096 108.34C195.046 120.03 203.896 138.93 198.066 143.28C192.236 147.63 187.196 148.1 176.716 149.13" stroke="#403F4C" stroke-width="1.5581" stroke-miterlimit="10" stroke-linecap="round" stroke-linejoin="round"/>
<path d="M92.0961 127.971C88.3761 125.911 84.9361 123.661 83.5361 120.211" stroke="#403F4C" stroke-width="1.5577" stroke-miterlimit="10" stroke-linecap="round" stroke-linejoin="round"/>
</svg>
