<svg width="24" height="24" viewBox="0 0 24 24" fill="none" xmlns="http://www.w3.org/2000/svg">
<path d="M20.742 1C20.742 0.585786 20.4062 0.25 19.992 0.25C19.5778 0.25 19.242 0.585786 19.242 1V3.25H16.992C16.5778 3.25 16.242 3.58579 16.242 4C16.242 4.41421 16.5778 4.75 16.992 4.75H19.242V7C19.242 7.41421 19.5778 7.75 19.992 7.75C20.4062 7.75 20.742 7.41421 20.742 7V4.75H22.992C23.4062 4.75 23.742 4.41421 23.742 4C23.742 3.58579 23.4062 3.25 22.992 3.25H20.742V1Z" fill="#0E0F19"/>
<path d="M7.40901 4.40901C7.83097 3.98705 8.40326 3.75 9 3.75H14C14.4142 3.75 14.75 3.41421 14.75 3C14.75 2.58579 14.4142 2.25 14 2.25H9C8.00544 2.25 7.05161 2.64509 6.34835 3.34835C5.64509 4.05161 5.25 5.00544 5.25 6V12.3096C4.26812 12.4666 3.35329 12.9292 2.64124 13.6412C1.75045 14.532 1.25 15.7402 1.25 17C1.25 18.2598 1.75045 19.468 2.64124 20.3588C3.53204 21.2496 4.74022 21.75 6 21.75H12L12.011 21.7499L17.1547 21.6742C18.0508 21.8363 18.9753 21.7374 19.8177 21.3884C20.6857 21.0289 21.4275 20.4201 21.9495 19.639C22.4714 18.8578 22.75 17.9395 22.75 17V8.5C22.75 8.08579 22.4142 7.75 22 7.75C21.5858 7.75 21.25 8.08579 21.25 8.5V17C21.25 17.6428 21.0594 18.2711 20.7023 18.8056C20.3452 19.3401 19.8376 19.7566 19.2437 20.0026C18.6499 20.2486 17.9964 20.313 17.366 20.1876C16.7355 20.0622 16.1564 19.7526 15.7019 19.2981C15.2474 18.8436 14.9378 18.2645 14.8124 17.634C14.687 17.0036 14.7514 16.3501 14.9974 15.7563C15.2434 15.1624 15.6599 14.6548 16.1944 14.2977C16.7289 13.9406 17.3572 13.75 18 13.75C18.4142 13.75 18.75 13.4142 18.75 13C18.75 12.5858 18.4142 12.25 18 12.25H6.75V6C6.75 5.40326 6.98705 4.83097 7.40901 4.40901Z" fill="#0E0F19"/>
</svg>
