<svg width="24" height="24" viewBox="0 0 24 24" fill="none" xmlns="http://www.w3.org/2000/svg">
<path d="M7.75 1.99994C7.74997 1.58573 7.41416 1.24997 6.99994 1.25C6.58573 1.25003 6.24997 1.58584 6.25 2.00006L6.25009 3.25H7.75V6C7.75 6.41421 7.41421 6.75 7 6.75C6.58579 6.75 6.25 6.41421 6.25 6L6.25009 3.25H5C4.27065 3.25 3.57118 3.53973 3.05546 4.05546C2.53973 4.57118 2.25 5.27065 2.25 6V9.25H21.75V6C21.75 5.27065 21.4603 4.57118 20.9445 4.05546C20.4288 3.53973 19.7293 3.25 19 3.25H15.7502V2C15.7502 1.58579 15.4144 1.25 15.0002 1.25C14.5859 1.25 14.2502 1.58579 14.2502 2V3.25H15.7502L15.75 6C15.75 6.41421 15.4142 6.75 15 6.75C14.5858 6.75 14.25 6.41421 14.25 6L14.2502 3.25H7.75V1.99994Z" fill="#0E0F19"/>
<path d="M21.75 10.75H2.25V19C2.25 19.7293 2.53973 20.4288 3.05546 20.9445C3.57118 21.4603 4.27065 21.75 5 21.75H19C19.7293 21.75 20.4288 21.4603 20.9445 20.9445C21.4603 20.4288 21.75 19.7293 21.75 19V10.75Z" fill="#0E0F19"/>
</svg>
