<svg width="24" height="24" viewBox="0 0 24 24" fill="none" xmlns="http://www.w3.org/2000/svg">
<path fill-rule="evenodd" clip-rule="evenodd" d="M9.3975 1.26978C9.49506 1.15906 9.62146 1.07763 9.76258 1.0346C9.90371 0.991564 10.054 0.988617 10.1967 1.02608C11.9623 1.48641 14.6752 2.68261 16.9614 4.81221C19.2651 6.96092 21.1501 10.0781 21.1501 14.3293C21.1501 16.0129 20.7728 18.0724 19.4657 19.7783C18.1379 21.5145 15.9361 22.7728 12.5195 22.9847H12.51C7.95669 23.214 4.75983 20.8471 3.47504 17.5866C2.20139 14.3548 2.83981 10.3345 5.71029 7.28426C5.78622 7.20333 5.87823 7.13918 5.9804 7.09591C6.08257 7.05265 6.19265 7.03123 6.30358 7.03303C6.41451 7.03483 6.52384 7.05981 6.62456 7.10636C6.72527 7.15292 6.81515 7.22003 6.88842 7.30337L8.90237 9.59066C9.6395 8.27499 9.99771 7.12816 10.0518 5.97974C10.1076 4.81221 9.84965 3.57937 9.25581 2.09327C9.20108 1.95621 9.18549 1.80662 9.21079 1.66121C9.23609 1.5158 9.30129 1.38028 9.3991 1.26978H9.3975ZM9.3179 13.3832C9.3179 13.2263 9.34879 13.0709 9.40879 12.926C9.4688 12.7811 9.55675 12.6494 9.66763 12.5384C9.77851 12.4275 9.91014 12.3395 10.055 12.2795C10.1999 12.2194 10.3551 12.1885 10.5119 12.1885C10.6688 12.1885 10.824 12.2194 10.9689 12.2795C11.1138 12.3395 11.2454 12.4275 11.3563 12.5384C11.4671 12.6494 11.5551 12.7811 11.6151 12.926C11.6751 13.0709 11.706 13.2263 11.706 13.3832C11.706 13.7 11.5802 14.0038 11.3563 14.2279C11.1323 14.4519 10.8286 14.5778 10.5119 14.5778C10.1953 14.5778 9.89156 14.4519 9.66763 14.2279C9.4437 14.0038 9.3179 13.7 9.3179 13.3832ZM15.6702 13.5838C15.7441 13.5098 15.8027 13.4219 15.8427 13.3252C15.8827 13.2285 15.9032 13.1249 15.9031 13.0202C15.903 12.9156 15.8824 12.812 15.8423 12.7153C15.8022 12.6187 15.7434 12.5309 15.6694 12.4569C15.5954 12.383 15.5076 12.3244 15.4109 12.2844C15.3142 12.2444 15.2107 12.2239 15.1061 12.2239C15.0015 12.224 14.8979 12.2447 14.8013 12.2848C14.7047 12.3249 14.617 12.3837 14.543 12.4577L9.31631 17.6869C9.24028 17.7604 9.17964 17.8483 9.13792 17.9455C9.0962 18.0426 9.07424 18.1471 9.07332 18.2529C9.0724 18.3586 9.09254 18.4635 9.13257 18.5614C9.17259 18.6592 9.2317 18.7482 9.30644 18.8229C9.38118 18.8977 9.47006 18.9569 9.56789 18.9969C9.66572 19.0369 9.77054 19.0571 9.87624 19.0562C9.98193 19.0553 10.0864 19.0333 10.1835 18.9915C10.2806 18.9498 10.3685 18.8891 10.4419 18.8131L15.6686 13.5838H15.6702ZM13.5528 17.8892C13.5528 17.5724 13.6786 17.2685 13.9025 17.0445C14.1264 16.8205 14.4301 16.6946 14.7468 16.6946C15.0635 16.6946 15.3672 16.8205 15.5911 17.0445C15.8151 17.2685 15.9409 17.5724 15.9409 17.8892C15.9409 18.2061 15.8151 18.5099 15.5911 18.734C15.3672 18.958 15.0635 19.0838 14.7468 19.0838C14.4301 19.0838 14.1264 18.958 13.9025 18.734C13.6786 18.5099 13.5528 18.2061 13.5528 17.8892Z" fill="#0E0F19"/>
</svg>
