<svg width="25" height="24" viewBox="0 0 25 24" fill="none" xmlns="http://www.w3.org/2000/svg">
<path d="M20.7008 14.2823C20.7008 6.46458 13.7888 2.84608 10.5336 2C11.7526 5.04403 11.6854 7.29662 10.1117 10.0721C10.0516 10.1752 9.9676 10.2623 9.86682 10.3262C9.76604 10.3902 9.65138 10.429 9.53247 10.4396C9.41355 10.4501 9.29383 10.4321 9.18335 10.3869C9.07286 10.3417 8.97483 10.2707 8.89747 10.1799L6.89717 7.91323C1.66202 13.4674 4.67497 22.4013 12.9621 21.986C19.3021 21.5958 20.7008 17.3778 20.7008 14.2823Z" stroke="black" stroke-width="1.5" stroke-linecap="round" stroke-linejoin="round"/>
<path d="M10.418 18.1265L15.55 13" stroke="black" stroke-width="1.5" stroke-linecap="round" stroke-linejoin="round"/>
<path d="M11.0407 13.7454C10.9371 13.7454 10.8379 13.7042 10.7647 13.6311C10.6915 13.5579 10.6504 13.4586 10.6504 13.3551C10.6504 13.2516 10.6915 13.1523 10.7647 13.0791C10.8379 13.006 10.9371 12.9648 11.0407 12.9648" stroke="black" stroke-width="1.5" stroke-linecap="round" stroke-linejoin="round"/>
<path d="M11.041 13.7454C11.1445 13.7454 11.2438 13.7042 11.317 13.6311C11.3902 13.5579 11.4313 13.4586 11.4313 13.3551C11.4313 13.2516 11.3902 13.1523 11.317 13.0791C11.2438 13.006 11.1445 12.9648 11.041 12.9648" stroke="black" stroke-width="1.5" stroke-linecap="round" stroke-linejoin="round"/>
<path d="M15.1949 18.1633C15.0914 18.1633 14.9922 18.1222 14.919 18.049C14.8458 17.9758 14.8047 17.8766 14.8047 17.7731C14.8047 17.6696 14.8458 17.5703 14.919 17.4971C14.9922 17.4239 15.0914 17.3828 15.1949 17.3828" stroke="black" stroke-width="1.5" stroke-linecap="round" stroke-linejoin="round"/>
<path d="M15.1953 18.1633C15.2988 18.1633 15.3981 18.1222 15.4713 18.049C15.5445 17.9758 15.5856 17.8766 15.5856 17.7731C15.5856 17.6696 15.5445 17.5703 15.4713 17.4971C15.3981 17.4239 15.2988 17.3828 15.1953 17.3828" stroke="black" stroke-width="1.5" stroke-linecap="round" stroke-linejoin="round"/>
</svg>
