<svg width="24" height="24" viewBox="0 0 24 24" fill="none" xmlns="http://www.w3.org/2000/svg">
<path d="M13.2511 3.24831C13.2511 2.86156 13.0753 2.49824 12.7706 2.26385C12.4659 2.02945 12.0713 1.9435 11.6963 2.03726L4.66832 3.79523C3.83622 4.00228 3.25023 4.75235 3.25023 5.6118V19.4998H2.00011C1.30864 19.4998 0.75 20.0584 0.75 20.7499C0.75 21.4414 1.30864 22 2.00011 22H4.50034H12.001H13.2511V20.7499V3.24831ZM10.7509 11.9991C10.7509 12.6906 10.3329 13.2492 9.81332 13.2492C9.29374 13.2492 8.87573 12.6906 8.87573 11.9991C8.87573 11.3076 9.29374 10.749 9.81332 10.749C10.3329 10.749 10.7509 11.3076 10.7509 11.9991ZM14.5012 6.99865H18.2516V20.7499C18.2516 21.4414 18.8102 22 19.5017 22H22.0019C22.6934 22 23.252 21.4414 23.252 20.7499C23.252 20.0584 22.6934 19.4998 22.0019 19.4998H20.7518V6.99865C20.7518 5.61962 19.6306 4.49842 18.2516 4.49842H14.5012V6.99865Z" fill="#0E0F19"/>
</svg>
