<svg width="24" height="24" viewBox="0 0 24 24" fill="none" xmlns="http://www.w3.org/2000/svg">
<path d="M10.1831 12.683C10.2494 12.7979 10.3393 12.8624 10.4331 12.8624C10.5269 12.8624 10.6168 12.7979 10.6831 12.683C10.7494 12.5682 10.7867 12.4124 10.7867 12.25C10.7867 12.0876 10.7494 11.9319 10.6831 11.817C10.6168 11.7022 10.5269 11.6377 10.4331 11.6377C10.3393 11.6377 10.2494 11.7022 10.1831 11.817C10.1168 11.9319 10.0796 12.0876 10.0796 12.25C10.0796 12.4124 10.1168 12.5682 10.1831 12.683Z" fill="#0E0F19" stroke="#0E0F19" stroke-width="1.5" stroke-linecap="round" stroke-linejoin="round"/>
<path d="M2 22H22" stroke="#0E0F19" stroke-width="1.5" stroke-linecap="round"/>
<path d="M20 22V7.5C20 6.39543 19.1046 5.5 18 5.5H16.5" stroke="#0E0F19" stroke-width="1.5" stroke-linecap="round"/>
<path d="M4.5 22V5.99648C4.5 5.10926 5.0845 4.32809 5.93567 4.07774L13 2V22" stroke="#0E0F19" stroke-width="1.5" stroke-linecap="round" stroke-linejoin="round"/>
</svg>
