<svg width="24" height="24" viewBox="0 0 24 24" fill="none" xmlns="http://www.w3.org/2000/svg">
<path d="M4.5 4.5C4.5 3.12109 5.62109 2 7 2H17C18.3789 2 19.5 3.12109 19.5 4.5V19.5H22C22.6914 19.5 23.25 20.0586 23.25 20.75C23.25 21.4414 22.6914 22 22 22H17.625H6.375H2C1.30859 22 0.75 21.4414 0.75 20.75C0.75 20.0586 1.30859 19.5 2 19.5H4.5V4.5ZM15.75 13.25C16.0815 13.25 16.3995 13.1183 16.6339 12.8839C16.8683 12.6495 17 12.3315 17 12C17 11.6685 16.8683 11.3505 16.6339 11.1161C16.3995 10.8817 16.0815 10.75 15.75 10.75C15.4185 10.75 15.1005 10.8817 14.8661 11.1161C14.6317 11.3505 14.5 11.6685 14.5 12C14.5 12.3315 14.6317 12.6495 14.8661 12.8839C15.1005 13.1183 15.4185 13.25 15.75 13.25Z" fill="#0E0F19"/>
</svg>
