<svg width="24" height="24" viewBox="0 0 24 24" fill="none" xmlns="http://www.w3.org/2000/svg">
<path d="M17.4 3C17.5591 3 17.7117 3.06321 17.8243 3.17574C17.9368 3.28826 18 3.44087 18 3.6V20.4C18 20.5591 17.9368 20.7117 17.8243 20.8243C17.7117 20.9368 17.5591 21 17.4 21M17.4 3H6.6C6.44087 3 6.28826 3.06321 6.17574 3.17574C6.06321 3.28826 6 3.44087 6 3.6V20.4C6 20.5591 6.06321 20.7117 6.17574 20.8243C6.28826 20.9368 6.44087 21 6.6 21H17.4" stroke="#0E0F19" stroke-width="1.5"/>
<path d="M3 6V18" stroke="#0E0F19" stroke-width="1.5" stroke-linecap="round"/>
<path d="M21 6V18" stroke="#0E0F19" stroke-width="1.5" stroke-linecap="round"/>
</svg>
