<svg width="24" height="24" viewBox="0 0 24 24" fill="none" xmlns="http://www.w3.org/2000/svg">
<path fill-rule="evenodd" clip-rule="evenodd" d="M5.64541 2.64541C5.89858 2.39223 6.24196 2.25 6.6 2.25H17.4C17.758 2.25 18.1014 2.39223 18.3546 2.64541C18.6078 2.89858 18.75 3.24196 18.75 3.6V20.4C18.75 20.758 18.6078 21.1014 18.3546 21.3546C18.1014 21.6078 17.758 21.75 17.4 21.75H6.6C6.24196 21.75 5.89858 21.6078 5.64541 21.3546C5.39223 21.1014 5.25 20.758 5.25 20.4V3.6C5.25 3.24196 5.39223 2.89858 5.64541 2.64541Z" fill="#0E0F19"/>
<path d="M3.75 6C3.75 5.58579 3.41421 5.25 3 5.25C2.58579 5.25 2.25 5.58579 2.25 6V18C2.25 18.4142 2.58579 18.75 3 18.75C3.41421 18.75 3.75 18.4142 3.75 18V6Z" fill="#0E0F19"/>
<path d="M21.75 6C21.75 5.58579 21.4142 5.25 21 5.25C20.5858 5.25 20.25 5.58579 20.25 6V18C20.25 18.4142 20.5858 18.75 21 18.75C21.4142 18.75 21.75 18.4142 21.75 18V6Z" fill="#0E0F19"/>
</svg>
