<svg width="24" height="24" viewBox="0 0 24 24" fill="none" xmlns="http://www.w3.org/2000/svg">
<path d="M2.57355 8.46298L11.2325 4.13398C11.3158 4.09243 11.4075 4.0708 11.5005 4.0708C11.5936 4.0708 11.6853 4.09243 11.7685 4.13398L20.4275 8.46398C20.5271 8.51384 20.6109 8.59044 20.6694 8.68519C20.7279 8.77994 20.7589 8.88911 20.7589 9.00048C20.7589 9.11185 20.7279 9.22102 20.6694 9.31577C20.6109 9.41052 20.5271 9.48712 20.4275 9.53698L11.7685 13.866C11.6853 13.9075 11.5936 13.9292 11.5005 13.9292C11.4075 13.9292 11.3158 13.9075 11.2325 13.866L2.57355 9.53598C2.47397 9.48612 2.39023 9.40952 2.33171 9.31477C2.27318 9.22002 2.24219 9.11085 2.24219 8.99948C2.24219 8.88811 2.27318 8.77894 2.33171 8.68419C2.39023 8.58944 2.47397 8.51284 2.57355 8.46298Z" stroke="#0E0F19" stroke-width="1.5" stroke-linecap="round" stroke-linejoin="round"/>
<path d="M22.5 13V9.5L20.5 8.5M4.5 10.5V15.912C4.49993 16.2904 4.60719 16.661 4.80933 16.9809C5.01148 17.3007 5.30021 17.5567 5.642 17.719L10.642 20.093C10.9101 20.2203 11.2032 20.2864 11.5 20.2864C11.7968 20.2864 12.0899 20.2203 12.358 20.093L17.358 17.719C17.6998 17.5567 17.9885 17.3007 18.1907 16.9809C18.3928 16.661 18.5001 16.2904 18.5 15.912V10.5" stroke="#0E0F19" stroke-width="1.5" stroke-linecap="round" stroke-linejoin="round"/>
</svg>
