<svg width="24" height="24" viewBox="0 0 24 24" fill="none" xmlns="http://www.w3.org/2000/svg">
<path d="M16.3052 2.25L16.3033 2.25001C15.447 2.25224 14.6001 2.4273 13.8131 2.76468C13.1453 3.05099 12.5323 3.4492 12.0002 3.94126C11.4687 3.44795 10.8556 3.04896 10.1872 2.76259C9.39943 2.42505 8.5513 2.251 7.69424 2.251C6.83718 2.251 5.98904 2.42505 5.20125 2.76259C4.41419 3.09982 3.70375 3.59321 3.11289 4.21292C0.629075 6.78869 0.629788 10.9378 3.11443 13.5137L10.4095 21.0757C11.2509 21.9474 12.6428 21.9768 13.5218 21.1447L13.5266 21.1402C15.2312 19.4981 16.8729 17.7547 18.4973 16.0295C19.2959 15.1814 20.0904 14.3377 20.8861 13.5126L20.8878 13.5109C22.0862 12.2602 22.7537 10.594 22.7502 8.86186C22.7534 7.1296 22.0855 5.46342 20.8866 4.21296L20.8855 4.21176C19.6794 2.95935 18.0324 2.25 16.3052 2.25Z" fill="#0E0F19"/>
</svg>
