<svg width="24" height="24" viewBox="0 0 24 24" fill="none" xmlns="http://www.w3.org/2000/svg">
<path d="M12.0001 2.3208C11.7908 2.3208 11.5843 2.36947 11.3971 2.46295L1.66466 7.32916C1.35355 7.48472 1.19022 7.83377 1.27014 8.1723C1.35005 8.51082 1.65224 8.74998 2.00007 8.74998H22.0001C22.3479 8.74998 22.6501 8.51082 22.73 8.1723C22.8099 7.83377 22.6466 7.48472 22.3355 7.32916L12.6035 2.46316C12.4162 2.36967 12.2094 2.3208 12.0001 2.3208Z" fill="#0E0F19"/>
<path fill-rule="evenodd" clip-rule="evenodd" d="M4.00007 10.25C3.58586 10.25 3.25007 10.5858 3.25007 11V19C3.25007 19.7293 3.5398 20.4288 4.05553 20.9445C4.57125 21.4602 5.27073 21.75 6.00007 21.75H18.0001C18.7294 21.75 19.4289 21.4602 19.9446 20.9445C20.4603 20.4288 20.7501 19.7293 20.7501 19V11C20.7501 10.5858 20.4143 10.25 20.0001 10.25H4.00007ZM9.25 16C9.25 15.5858 9.58579 15.25 10 15.25H14C14.4142 15.25 14.75 15.5858 14.75 16C14.75 16.4142 14.4142 16.75 14 16.75H10C9.58579 16.75 9.25 16.4142 9.25 16Z" fill="#0E0F19"/>
</svg>
