<svg width="24" height="24" viewBox="0 0 24 24" fill="none" xmlns="http://www.w3.org/2000/svg">
<path d="M22 12C22 6.477 17.523 2 12 2C6.477 2 2 6.477 2 12C2 17.523 6.477 22 12 22M13 2.05C13 2.05 16 6 16 12" stroke="#0E0F19" stroke-width="1.5" stroke-linecap="round" stroke-linejoin="round"/>
<path d="M10.9999 21.95C10.9999 21.95 7.99988 18 7.99988 12C7.99988 5.99999 10.9999 2.04999 10.9999 2.04999M2.62988 15.5H11.9999M2.62988 8.49999H21.3699" stroke="#0E0F19" stroke-width="1.5" stroke-linecap="round" stroke-linejoin="round"/>
<path d="M21.8792 17.917C22.3732 18.221 22.3422 18.96 21.8342 19.018L19.2672 19.309L18.1162 21.621C17.8882 22.08 17.1832 21.855 17.0662 21.287L15.8112 15.171C15.7122 14.691 16.1442 14.389 16.5612 14.646L21.8792 17.917Z" stroke="#0E0F19" stroke-width="1.5"/>
</svg>
