<svg width="24" height="24" viewBox="0 0 24 24" fill="none" xmlns="http://www.w3.org/2000/svg">
<path d="M17.5501 11.2308C19.5936 11.2308 21.2501 9.16439 21.2501 6.61538C21.2501 4.06638 19.5936 2 17.5501 2C15.5066 2 13.8501 4.06638 13.8501 6.61538C13.8501 9.16439 15.5066 11.2308 17.5501 11.2308Z" stroke="#0E0F19" stroke-width="1.5" stroke-linecap="round"/>
<path d="M17.5498 11.2308V22" stroke="#0E0F19" stroke-width="1.5" stroke-linecap="round"/>
<path d="M6.604 2V22" stroke="#0E0F19" stroke-width="1.5" stroke-linecap="round"/>
<path d="M10.4583 2V5.84615C10.4583 6.35124 10.3586 6.85138 10.165 7.31801C9.97126 7.78465 9.68737 8.20865 9.32947 8.56579C8.97158 8.92294 8.5467 9.20625 8.07909 9.39954C7.61148 9.59282 7.1103 9.69231 6.60417 9.69231C5.58198 9.69231 4.60166 9.28709 3.87886 8.56579C3.15606 7.8445 2.75 6.86622 2.75 5.84615V2" stroke="#0E0F19" stroke-width="1.5" stroke-linecap="round"/>
</svg>
