<svg width="24" height="24" viewBox="0 0 24 24" fill="none" xmlns="http://www.w3.org/2000/svg">
<path d="M12 22C17.523 22 22 17.523 22 12C22 6.477 17.523 2 12 2C6.477 2 2 6.477 2 12C2 17.523 6.477 22 12 22Z" stroke="#0E0F19" stroke-width="1.5" stroke-linecap="round" stroke-linejoin="round"/>
<path d="M9.235 14.89L5 19M14.765 14.89L19 19M14.765 9.11L19 5M9.235 9.11L5 5M8 12C8 13.0609 8.42143 14.0783 9.17157 14.8284C9.92172 15.5786 10.9391 16 12 16C13.0609 16 14.0783 15.5786 14.8284 14.8284C15.5786 14.0783 16 13.0609 16 12C16 10.9391 15.5786 9.92172 14.8284 9.17157C14.0783 8.42143 13.0609 8 12 8C10.9391 8 9.92172 8.42143 9.17157 9.17157C8.42143 9.92172 8 10.9391 8 12Z" stroke="#0E0F19" stroke-width="1.5" stroke-linecap="round" stroke-linejoin="round"/>
</svg>
