<svg width="624" height="800" viewBox="0 0 624 800" fill="none" xmlns="http://www.w3.org/2000/svg">
<rect x="18" y="38" width="574" height="472" fill="white"/>
<path d="M311.016 164.751C232.13 164.751 167.997 228.923 167.997 307.789C167.997 386.636 232.132 450.828 311.016 450.828C389.882 450.828 454.035 386.636 454.035 307.789C454.035 228.943 389.882 164.751 311.016 164.751ZM311.016 440.782C237.587 440.782 178.003 381.238 178.003 307.809C178.003 234.36 237.587 174.816 311.016 174.816C384.465 174.816 443.989 234.341 443.989 307.809C444.009 381.238 384.425 440.782 311.016 440.782ZM1.87695 0V620.285H196.998L311.979 800L426.98 620.285H622.121V0H1.87695ZM141.387 245.217C140.635 269.899 113.6 279.327 113.6 279.327V328.883H113.64L113.62 442.882C113.62 442.882 102.686 457.035 88.533 442.882V279.288H88.8606C72.3552 272.27 60.168 269.858 59.3963 245.196H59.2799V167.914H71.6585L77.7136 242.616H92.3303L94.1618 166.373H106.059L107.505 242.616H124.686L128.619 167.914H141.462L141.519 245.2L141.387 245.217ZM311.016 464.442C224.63 464.442 154.363 394.195 154.363 307.829C154.363 221.423 224.611 151.196 311.016 151.196C397.384 151.196 467.669 221.443 467.669 307.829C467.649 394.195 397.384 464.442 311.016 464.442ZM560.881 299.518H530.568V452.853H495.57V162.803H530.568C530.568 162.803 578.312 223.312 560.881 299.518ZM359.127 307.789C359.127 334.36 337.589 355.9 311.016 355.9C284.443 355.9 262.905 334.362 262.905 307.789C262.905 281.218 284.443 259.678 311.016 259.678C337.589 259.678 359.127 281.218 359.127 307.789Z" fill="#1A96F0" stroke="#1A96F0" stroke-width="1.97363"/>
</svg>
