<svg width="623" height="803" viewBox="0 0 623 803" fill="none" xmlns="http://www.w3.org/2000/svg">
<rect x="24" y="77" width="574" height="472" fill="white"/>
<path d="M310.139 165.751C231.253 165.751 167.12 229.923 167.12 308.789C167.12 387.636 231.255 451.828 310.139 451.828C389.005 451.828 453.158 387.636 453.158 308.789C453.158 229.943 389.005 165.751 310.139 165.751ZM310.139 441.782C236.71 441.782 177.127 382.238 177.127 308.809C177.127 235.36 236.71 175.816 310.139 175.816C383.588 175.816 443.112 235.341 443.112 308.809C443.132 382.238 383.548 441.782 310.139 441.782ZM1 1V621.285H196.121L311.102 801L426.104 621.285H621.244V1H1ZM140.51 246.217C139.758 270.899 112.723 280.327 112.723 280.327V329.883H112.763L112.743 443.882C112.743 443.882 101.809 458.035 87.6561 443.882V280.288H87.9837C71.4782 273.27 59.2911 270.858 58.5194 246.196H58.4029V168.914H70.7815L76.8366 243.616H91.4533L93.2848 167.373H105.182L106.629 243.616H123.809L127.742 168.914H140.585L140.642 246.2L140.51 246.217ZM310.139 465.442C223.753 465.442 153.486 395.195 153.486 308.829C153.486 222.423 223.734 152.196 310.139 152.196C396.507 152.196 466.792 222.443 466.792 308.829C466.772 395.195 396.507 465.442 310.139 465.442ZM560.004 300.518H529.691V453.853H494.693V163.803H529.691C529.691 163.803 577.435 224.312 560.004 300.518ZM358.25 308.789C358.25 335.36 336.712 356.9 310.139 356.9C283.566 356.9 262.028 335.362 262.028 308.789C262.028 282.218 283.566 260.678 310.139 260.678C336.712 260.678 358.25 282.218 358.25 308.789Z" fill="#0EA875" stroke="#0EA875" stroke-width="1.97363"/>
</svg>
