<svg width="28" height="28" viewBox="0 0 28 28" fill="none" xmlns="http://www.w3.org/2000/svg">
<path d="M5.52421 18.867C4.25457 16.7249 3.81047 14.193 4.27527 11.7467C4.74007 9.30043 6.08182 7.10791 8.04862 5.58077C10.0154 4.05363 12.472 3.2969 14.9572 3.45264C17.4424 3.60839 19.7853 4.6659 21.546 6.42665C23.3068 8.18739 24.3643 10.5303 24.52 13.0155C24.6758 15.5007 23.919 17.9573 22.3919 19.9241C20.8648 21.8908 18.6722 23.2326 16.2259 23.6974C13.7796 24.1622 11.2478 23.7181 9.10572 22.4485V22.4485L5.56685 23.4504C5.42186 23.4928 5.26813 23.4955 5.12178 23.458C4.97542 23.4206 4.84184 23.3445 4.73502 23.2377C4.6282 23.1308 4.55208 22.9972 4.51465 22.8509C4.47721 22.7045 4.47983 22.5508 4.52224 22.4058L5.52421 18.867Z" stroke="black" stroke-width="2.55822" stroke-linecap="round" stroke-linejoin="round"/>
<path d="M9.21234 15.3494L12.6233 11.9385L16.0343 15.3494L19.4452 11.9385" stroke="black" stroke-width="2.55822" stroke-linecap="round" stroke-linejoin="round"/>
</svg>
