<svg width="128" height="128" viewBox="0 0 128 128" fill="none" xmlns="http://www.w3.org/2000/svg">
<g clip-path="url(#clip0_202_8501)">
<circle opacity="0.08" cx="64" cy="64" r="64" fill="#1A96F0"/>
<rect x="8" y="68" width="96" height="52" rx="8" fill="white"/>
<rect x="8.25" y="68.25" width="95.5" height="51.5" rx="7.75" stroke="#1A96F0" stroke-opacity="0.24" stroke-width="0.5"/>
<rect opacity="0.16" x="16" y="76" width="32" height="24" rx="4" fill="#1A96F0"/>
<rect opacity="0.16" x="56" y="76" width="32" height="8" rx="4" fill="#1A96F0"/>
<rect opacity="0.08" x="56" y="90" width="40" height="8" rx="4" fill="#1A96F0"/>
<rect opacity="0.08" x="56" y="104" width="40" height="8" rx="4" fill="#1A96F0"/>
<path d="M109.333 109.333L120 120L109.333 109.333ZM72 93.3333C72 98.9913 74.2476 104.418 78.2484 108.418C82.2492 112.419 87.6754 114.667 93.3333 114.667C98.9913 114.667 104.418 112.419 108.418 108.418C112.419 104.418 114.667 98.9913 114.667 93.3333C114.667 87.6754 112.419 82.2492 108.418 78.2484C104.418 74.2476 98.9913 72 93.3333 72C87.6754 72 82.2492 74.2476 78.2484 78.2484C74.2476 82.2492 72 87.6754 72 93.3333Z" fill="white"/>
<path d="M109.333 109.333L120 120L109.333 109.333ZM72 93.3333C72 98.9913 74.2476 104.418 78.2484 108.418C82.2492 112.419 87.6754 114.667 93.3333 114.667C98.9913 114.667 104.418 112.419 108.418 108.418C112.419 104.418 114.667 98.9913 114.667 93.3333C114.667 87.6754 112.419 82.2492 108.418 78.2484C104.418 74.2476 98.9913 72 93.3333 72C87.6754 72 82.2492 74.2476 78.2484 78.2484C74.2476 82.2492 72 87.6754 72 93.3333Z" fill="#1A96F0" fill-opacity="0.04"/>
<path d="M109.333 109.333L120 120M72 93.3333C72 98.9913 74.2476 104.418 78.2484 108.418C82.2492 112.419 87.6754 114.667 93.3333 114.667C98.9913 114.667 104.418 112.419 108.418 108.418C112.419 104.418 114.667 98.9913 114.667 93.3333C114.667 87.6754 112.419 82.2492 108.418 78.2484C104.418 74.2476 98.9913 72 93.3333 72C87.6754 72 82.2492 74.2476 78.2484 78.2484C74.2476 82.2492 72 87.6754 72 93.3333Z" stroke="#1A96F0" stroke-width="2" stroke-linecap="round"/>
<path d="M100 88L88 100" stroke="#1A96F0" stroke-width="2" stroke-linecap="round"/>
<path d="M88 88L100 100" stroke="#1A96F0" stroke-width="2" stroke-linecap="round"/>
<rect x="8" y="8" width="96" height="52" rx="8" fill="white"/>
<rect x="8.25" y="8.25" width="95.5" height="51.5" rx="7.75" stroke="#1A96F0" stroke-opacity="0.24" stroke-width="0.5"/>
<rect opacity="0.16" x="16" y="16" width="32" height="24" rx="4" fill="#1A96F0"/>
<rect opacity="0.16" x="56" y="16" width="32" height="8" rx="4" fill="#1A96F0"/>
<rect opacity="0.08" x="56" y="30" width="40" height="8" rx="4" fill="#1A96F0"/>
<rect opacity="0.08" x="56" y="44" width="40" height="8" rx="4" fill="#1A96F0"/>
</g>
<defs>
<clipPath id="clip0_202_8501">
<rect width="128" height="128" fill="white"/>
</clipPath>
</defs>
</svg>
