<svg width="24" height="24" viewBox="0 0 24 24" fill="none" xmlns="http://www.w3.org/2000/svg">
<path fill-rule="evenodd" clip-rule="evenodd" d="M12 1.25C6.06279 1.25 1.25 6.06279 1.25 12C1.25 17.9372 6.06279 22.75 12 22.75C17.9372 22.75 22.75 17.9372 22.75 12C22.75 6.06279 17.9372 1.25 12 1.25ZM8.5 7.25C8.16848 7.25 7.85054 7.38169 7.61612 7.61612C7.38169 7.85054 7.25 8.16848 7.25 8.5C7.25 8.83152 7.38169 9.14946 7.61612 9.38388C7.85054 9.61831 8.16848 9.75 8.5 9.75C8.83152 9.75 9.14946 9.61831 9.38388 9.38388C9.61831 9.14946 9.75 8.83152 9.75 8.5C9.75 8.16848 9.61831 7.85054 9.38388 7.61612C9.14946 7.38169 8.83152 7.25 8.5 7.25ZM15.5 14.25C15.1685 14.25 14.8505 14.3817 14.6161 14.6161C14.3817 14.8505 14.25 15.1685 14.25 15.5C14.25 15.8315 14.3817 16.1495 14.6161 16.3839C14.8505 16.6183 15.1685 16.75 15.5 16.75C15.8315 16.75 16.1495 16.6183 16.3839 16.3839C16.6183 16.1495 16.75 15.8315 16.75 15.5C16.75 15.1685 16.6183 14.8505 16.3839 14.6161C16.1495 14.3817 15.8315 14.25 15.5 14.25ZM16.5303 8.53033C16.8232 8.23744 16.8232 7.76256 16.5303 7.46967C16.2374 7.17678 15.7626 7.17678 15.4697 7.46967L7.46967 15.4697C7.17678 15.7626 7.17678 16.2374 7.46967 16.5303C7.76256 16.8232 8.23744 16.8232 8.53033 16.5303L16.5303 8.53033Z" fill="#0E0F19"/>
</svg>
