<svg width="24" height="24" viewBox="0 0 24 24" fill="none" xmlns="http://www.w3.org/2000/svg">
<path d="M16.5 4L20 7.5L16.5 11" stroke="#0E0F19" stroke-width="1.5" stroke-linecap="round" stroke-linejoin="round"/>
<path d="M20 7.5H14C12.9391 7.5 11.9217 7.92143 11.1716 8.67157C10.4214 9.42172 10 10.4391 10 11.5V15" stroke="#0E0F19" stroke-width="1.5" stroke-linecap="round" stroke-linejoin="round"/>
<path d="M21 13V19C21 19.5304 20.7893 20.0391 20.4142 20.4142C20.0391 20.7893 19.5304 21 19 21H5C4.46957 21 3.96086 20.7893 3.58579 20.4142C3.21071 20.0391 3 19.5304 3 19V13M11 3H5C4.46957 3 3.96086 3.21071 3.58579 3.58579C3.21071 3.96086 3 4.46957 3 5V17" stroke="#0E0F19" stroke-width="1.5" stroke-linecap="round" stroke-linejoin="round"/>
</svg>
