<svg width="24" height="24" viewBox="0 0 24 24" fill="none" xmlns="http://www.w3.org/2000/svg">
<path d="M11.1457 1.74219C11.4022 1.58387 11.6977 1.5 11.9991 1.5C12.3006 1.5 12.5961 1.58387 12.8525 1.74219C13.1089 1.90052 13.3161 2.12705 13.4508 2.39637L13.4515 2.39789L15.8187 7.15855L21.1078 7.9261L21.1104 7.92647C21.4092 7.96834 21.6902 8.093 21.9217 8.28633C22.1538 8.48022 22.3266 8.73538 22.4204 9.02267C22.5143 9.30996 22.5253 9.61781 22.4524 9.91108C22.3795 10.2041 22.2251 10.4713 22.0078 10.6812L18.1814 14.3823L19.0848 19.6111C19.3137 20.9398 17.9121 21.9263 16.7337 21.3123L11.9991 18.84L7.26355 21.3124C6.0826 21.9298 4.68535 20.9358 4.91353 19.6099L5.81681 14.3813L1.989 10.6789C1.77248 10.4687 1.61935 10.2021 1.54701 9.90933C1.47466 9.61658 1.48601 9.30944 1.57976 9.02281C1.67351 8.73618 1.84589 8.48157 2.07733 8.2879C2.30827 8.09466 2.58876 7.96984 2.88704 7.92756L8.17948 7.15862L10.5467 2.39789L10.5475 2.39637C10.6822 2.12705 10.8893 1.90052 11.1457 1.74219Z" fill="#0E0F19"/>
</svg>
