<svg width="28" height="28" viewBox="0 0 28 28" fill="none" xmlns="http://www.w3.org/2000/svg">
<path d="M9.40757 14.3793L18.9902 22.8107C19.101 22.9088 19.2353 22.9763 19.3801 23.0068C19.5248 23.0372 19.675 23.0294 19.8158 22.9843C19.9567 22.9391 20.0833 22.8581 20.1834 22.7492C20.2835 22.6403 20.3535 22.5072 20.3866 22.3631L24.3945 4.86057C24.4281 4.70984 24.4201 4.55281 24.3714 4.40625C24.3228 4.25969 24.2352 4.12909 24.1181 4.02841C24.001 3.92773 23.8588 3.86073 23.7066 3.83458C23.5544 3.80843 23.3979 3.8241 23.2539 3.87992L3.57696 11.6079C2.78818 11.917 2.89477 13.0682 3.72619 13.2387L9.40757 14.3793Z" stroke="black" stroke-width="2.55822" stroke-linecap="round" stroke-linejoin="round"/>
<path d="M9.40753 14.3792L23.9148 3.90112" stroke="black" stroke-width="2.55822" stroke-linecap="round" stroke-linejoin="round"/>
<path d="M14.1935 18.5898L10.8678 21.9155C10.7492 22.036 10.5974 22.1184 10.4318 22.1525C10.2661 22.1865 10.0941 22.1705 9.93762 22.1065C9.7811 22.0425 9.64713 21.9334 9.55275 21.7931C9.45836 21.6528 9.40781 21.4877 9.40753 21.3186V14.3794" stroke="black" stroke-width="2.55822" stroke-linecap="round" stroke-linejoin="round"/>
</svg>
