<svg width="28" height="28" viewBox="0 0 28 28" fill="none" xmlns="http://www.w3.org/2000/svg">
<path d="M14.0137 9.38054C14.0137 7.03551 15.9857 5.08486 18.3307 5.11684C19.152 5.12632 19.953 5.37279 20.6375 5.82662C21.322 6.28044 21.8609 6.92231 22.1894 7.67506H25.9521L22.5091 11.118C22.287 14.5765 20.756 17.8205 18.2275 20.1906C15.6991 22.5606 12.3629 23.8788 8.89728 23.8771C5.48632 23.8771 4.63358 22.598 4.63358 22.598C4.63358 22.598 8.04454 21.3189 9.75002 18.7607C9.75002 18.7607 2.9281 15.3497 4.63358 5.96958C4.63358 5.96958 8.89728 10.2333 14.0137 11.086V9.38054Z" stroke="black" stroke-width="2.55822" stroke-linecap="round" stroke-linejoin="round"/>
</svg>
