<svg width="28" height="28" viewBox="0 0 28 28" fill="none" xmlns="http://www.w3.org/2000/svg">
<path d="M5.55161 18.867C4.28198 16.7249 3.83787 14.193 4.30268 11.7467C4.76748 9.30043 6.10923 7.10791 8.07602 5.58077C10.0428 4.05363 12.4994 3.2969 14.9846 3.45264C17.4698 3.60839 19.8127 4.6659 21.5734 6.42665C23.3342 8.18739 24.3917 10.5303 24.5474 13.0155C24.7032 15.5007 23.9464 17.9573 22.4193 19.9241C20.8922 21.8908 18.6996 23.2326 16.2533 23.6974C13.807 24.1622 11.2752 23.7181 9.13312 22.4485V22.4485L5.59425 23.4504C5.44926 23.4928 5.29553 23.4955 5.14918 23.458C5.00283 23.4206 4.86924 23.3445 4.76242 23.2377C4.65561 23.1308 4.57949 22.9972 4.54205 22.8509C4.50462 22.7045 4.50724 22.5508 4.54964 22.4058L5.55161 18.867Z" stroke="black" stroke-width="2.55822" stroke-linecap="round" stroke-linejoin="round"/>
<path d="M9.23977 11.0323C9.25098 10.3622 9.52579 9.72352 10.0046 9.25465C10.4835 8.78577 11.1278 8.52447 11.798 8.52737H12.1711C12.3176 8.5276 12.4616 8.56607 12.5887 8.63898C12.7158 8.71189 12.8217 8.81671 12.8959 8.94308L13.6847 10.2542C13.7606 10.3765 13.8035 10.5164 13.8091 10.6603C13.8147 10.8042 13.7829 10.9471 13.7167 11.0749L13.2157 12.0982C13.3918 12.7406 13.7321 13.326 14.203 13.797C14.674 14.268 15.2595 14.6082 15.9018 14.7843L16.9251 14.2834C17.053 14.2172 17.1958 14.1853 17.3397 14.1909C17.4836 14.1965 17.6235 14.2394 17.7459 14.3153L19.0569 15.1041C19.1833 15.1783 19.2881 15.2842 19.361 15.4113C19.4339 15.5385 19.4724 15.6824 19.4726 15.829V16.202C19.4755 16.8722 19.2142 17.5165 18.7454 17.9954C18.2765 18.4742 17.6378 18.749 16.9677 18.7602C15.9505 18.7688 14.9418 18.5747 14.0003 18.1894C13.0589 17.804 12.2035 17.2351 11.4842 16.5158C10.7649 15.7965 10.196 14.9412 9.81066 13.9997C9.42531 13.0583 9.23125 12.0495 9.23977 11.0323V11.0323Z" stroke="black" stroke-width="2.55822" stroke-linecap="round" stroke-linejoin="round"/>
</svg>
