<svg width="522" height="162" viewBox="0 0 522 162" fill="none" xmlns="http://www.w3.org/2000/svg">
<g clip-path="url(#clip0_921_12666)">
<path d="M62.3563 156.33L31.147 107.042C31.147 107.042 9.31495 76.8527 8.29509 70.3728C7.27524 63.8923 0.109158 46.239 4.96476 35.4086C9.82032 24.5783 10.2535 23.8924 10.2535 23.8924C10.2535 23.8924 0.876302 16.8977 4.02611 11.0133C7.17595 5.12875 12.6362 2.99879 15.7951 3.51325C18.9539 4.02768 24.1525 7.52049 24.0712 9.05479C23.99 10.5891 25.434 10.8418 25.434 10.8418C25.434 10.8418 34.2157 5.89593 45.9034 5.97713C57.5912 6.05839 79.6758 4.78579 85.8129 6.40135C91.9501 8.01685 98.9449 11.0042 98.9449 11.0042C98.9449 11.0042 104.405 1.36521 110.542 3.24249C116.679 5.11974 121.887 10.1468 120.687 14.7587C119.495 19.3617 113.268 23.8021 113.268 23.8021C113.268 23.8021 121.797 38.387 120.939 49.8131C120.091 61.2389 112.925 79.4069 106.95 89.037C100.985 98.6761 62.3563 156.33 62.3563 156.33Z" fill="white"/>
<path d="M11.134 23.3779C10.412 23.2515 -3.5772 41.4556 7.67728 67.5476C18.9318 93.64 41.6213 123.486 41.6213 123.486L62.5958 155.896C62.5958 155.896 61.8288 148.424 46.5671 119.913C38.1647 104.209 15.3578 76.5098 10.069 58.5944C4.78018 40.6884 15.1412 22.5656 11.134 23.3779Z" fill="#C0BFE1"/>
<path d="M14.6439 3.96743C14.6439 3.96743 7.28835 8.12808 7.28835 13.6876C7.28835 19.2473 11.828 23.6697 11.828 23.6697L5.88944 20.944C5.88944 20.944 1.11505 13.5703 3.84066 10.6281C6.56634 7.68584 11.1331 3.89524 11.7288 3.89524C12.3335 3.88617 14.6439 3.96743 14.6439 3.96743Z" fill="#C0BFE1"/>
<path d="M109.017 3.97454C109.017 3.97454 116.373 8.13519 116.373 13.6948C116.373 19.2544 111.833 23.6768 111.833 23.6768L117.771 20.9511C117.771 20.9511 122.546 13.5774 119.82 10.6352C117.095 7.69295 112.528 3.90234 111.932 3.90234C111.337 3.90234 109.017 3.97454 109.017 3.97454Z" fill="#C0BFE1"/>
<path d="M115.913 5.86684C106.283 -1.01946 101.491 6.46254 99.5409 11.3001C93.4129 7.77118 86.3371 5.72245 78.7828 5.72245H45.2902C37.718 5.72245 30.6241 7.708 24.487 11.1827C22.5014 6.34518 17.718 -0.956283 8.16025 5.86684C-2.49859 13.4842 6.36421 21.1016 10.5429 23.9536C5.90395 30.7135 3.17832 38.9265 3.17832 47.8255C3.17832 71.291 25.9581 100.01 29.9111 105.66C38.9454 118.566 62.9073 156.878 62.9073 156.878C62.9073 156.878 86.8697 118.566 95.9038 105.66C100.507 99.0891 120.904 70.5873 120.904 47.8255C120.904 39.098 118.124 30.876 113.395 24.0529C117.492 21.2911 126.698 13.5835 115.913 5.86684Z" stroke="#0E0F19" stroke-width="3.47778" stroke-miterlimit="10" stroke-linecap="round"/>
<path d="M34.0087 55.8727C37.8966 55.8727 41.0484 52.7204 41.0484 48.8327C41.0484 44.9448 37.8966 41.793 34.0087 41.793C30.1208 41.793 26.969 44.9448 26.969 48.8327C26.969 52.7204 30.1208 55.8727 34.0087 55.8727Z" fill="#C0BFE1"/>
<path d="M35.5592 54.3337C39.4472 54.3337 42.599 51.1816 42.599 47.2936C42.599 43.4057 39.4472 40.2539 35.5592 40.2539C31.6714 40.2539 28.5195 43.4057 28.5195 47.2936C28.5195 51.1816 31.6714 54.3337 35.5592 54.3337Z" fill="#0E0F19" stroke="#0E0F19" stroke-width="3.47778" stroke-miterlimit="10" stroke-linecap="round"/>
<path d="M38.1152 47.5749C39.2908 47.3293 40.0216 46.0664 39.7475 44.7542C39.4734 43.442 38.2981 42.5773 37.1225 42.8229C35.9469 43.0685 35.2161 44.3314 35.4902 45.6436C35.7643 46.9558 36.9396 47.8205 38.1152 47.5749Z" fill="white"/>
<path d="M88.5052 55.8646C92.3928 55.8646 95.5445 52.7129 95.5445 48.8249C95.5445 44.9369 92.3928 41.7852 88.5052 41.7852C84.6171 41.7852 81.4653 44.9369 81.4653 48.8249C81.4653 52.7129 84.6171 55.8646 88.5052 55.8646Z" fill="#C0BFE1"/>
<path d="M90.0342 54.3337C93.9224 54.3337 97.0741 51.1816 97.0741 47.2936C97.0741 43.4057 93.9224 40.2539 90.0342 40.2539C86.1466 40.2539 82.9949 43.4057 82.9949 47.2936C82.9949 51.1816 86.1466 54.3337 90.0342 54.3337Z" fill="#0E0F19" stroke="#0E0F19" stroke-width="3.47778" stroke-miterlimit="10" stroke-linecap="round"/>
<path d="M92.6113 47.5749C93.7868 47.3293 94.5177 46.0664 94.2436 44.7542C93.9696 43.442 92.7942 42.5773 91.6188 42.8229C90.4428 43.0685 89.7119 44.3314 89.9865 45.6436C90.2605 46.9558 91.4359 47.8205 92.6113 47.5749Z" fill="white"/>
<path d="M76.213 78.5928C76.213 74.6762 75.8789 67.6272 72.1334 64.7662C68.9205 62.3112 63.6319 64.8021 63.6319 64.8021C63.6319 64.8021 58.3701 62.3927 54.3988 64.6219C49.4621 67.3928 47.7744 73.7917 47.7744 80.822C47.7744 87.8527 53.9477 94.8567 63.2076 94.8567C72.4676 94.8567 74.8051 90.7411 76.294 88.9088L74.2091 87.0498C72.4402 89.0354 70.9695 91.9506 63.442 91.9506C55.9151 91.9506 50.843 86.0296 50.843 81.3278H76.0146C76.1497 80.705 76.213 79.8205 76.213 78.5928ZM71.2221 75.3257C71.2221 75.389 71.1679 75.4523 71.0955 75.4523H70.5178C70.5178 75.4523 70.3017 75.7318 69.9858 75.8761C69.6698 76.0118 69.4081 76.03 69.4081 76.03H57.9008C57.9008 76.03 57.4132 75.9576 57.1247 75.7591C56.8355 75.5692 56.7546 75.4523 56.7546 75.4523H56.1501C56.0868 75.4523 56.0235 75.3981 56.0235 75.3257V75.2898C56.0235 75.2174 56.0777 75.1632 56.1501 75.1632H57.1788C57.1788 75.1632 57.4406 69.1076 63.0811 68.7375L63.0634 68.701C63.0451 68.6468 63.0811 68.5926 63.1443 68.5926H63.3251L63.3337 68.5749C63.3702 68.4934 63.3879 68.4033 63.3879 68.3041C63.3879 68.2048 63.3702 68.1147 63.316 68.0241H63.1352C63.0811 68.0241 63.036 67.979 63.036 67.9249V67.8347C63.036 67.8347 62.6391 67.6813 62.6391 67.3563C62.6391 67.0313 63.0725 66.7336 63.641 66.7336C64.2096 66.7336 64.6156 67.0495 64.6156 67.3563C64.6156 67.6631 64.2182 67.8347 64.2182 67.8347V67.9249C64.2182 67.979 64.1731 68.0241 64.1189 68.0241H63.9114L63.8937 68.0606C63.8304 68.214 63.8212 68.3765 63.8845 68.539L63.9028 68.6018H64.083C64.1372 68.6018 64.1731 68.6559 64.1554 68.701L64.1372 68.7466C69.8232 69.0893 70.0308 75.1723 70.0308 75.1723H71.0778C71.1497 75.1723 71.2039 75.2265 71.2039 75.2989V75.3257H71.2221Z" fill="#0E0F19"/>
</g>
<path d="M180.84 41.3371H215.811V49.5943H180.84V41.3371ZM181.714 71.5486H221.349V80H172V12H219.989V20.4514H181.714V71.5486Z" fill="#0E0F19"/>
<path d="M226.781 80L257.575 12H267.192L298.084 80H287.884L260.392 17.44H264.278L236.787 80H226.781ZM239.895 63L242.518 55.2286H280.792L283.61 63H239.895Z" fill="#0E0F19"/>
<path d="M318.315 80V20.4514H295.001V12H351.247V20.4514H327.932V80H318.315Z" fill="#0E0F19"/>
<path d="M376.708 80L353.977 12H363.982L384.868 74.7543H379.817L401.48 12H410.417L431.594 74.7543H426.737L447.914 12H457.142L434.411 80H424.211L404.394 21.8114H407.017L387.102 80H376.708Z" fill="#0E0F19"/>
<path d="M484.874 80V53.9657L487.108 59.9886L457.868 12H468.262L492.839 52.5086H487.205L511.879 12H521.496L492.354 59.9886L494.491 53.9657V80H484.874Z" fill="#0E0F19"/>
<rect x="385" y="106" width="136" height="56" rx="28" fill="#1A96F0"/>
<path d="M412.008 145V122.6H422.504C425.192 122.6 427.24 123.133 428.648 124.2C430.056 125.245 430.76 126.653 430.76 128.424C430.76 129.619 430.483 130.643 429.928 131.496C429.373 132.328 428.627 132.979 427.688 133.448C426.771 133.896 425.768 134.12 424.68 134.12L425.256 132.968C426.515 132.968 427.645 133.203 428.648 133.672C429.651 134.12 430.44 134.781 431.016 135.656C431.613 136.531 431.912 137.619 431.912 138.92C431.912 140.84 431.176 142.333 429.704 143.4C428.232 144.467 426.045 145 423.144 145H412.008ZM416.168 141.736H422.888C424.445 141.736 425.64 141.48 426.472 140.968C427.304 140.456 427.72 139.635 427.72 138.504C427.72 137.395 427.304 136.584 426.472 136.072C425.64 135.539 424.445 135.272 422.888 135.272H415.848V132.04H422.056C423.507 132.04 424.616 131.784 425.384 131.272C426.173 130.76 426.568 129.992 426.568 128.968C426.568 127.923 426.173 127.144 425.384 126.632C424.616 126.12 423.507 125.864 422.056 125.864H416.168V141.736ZM440.192 131.912H451.328V135.336H440.192V131.912ZM440.512 141.512H453.152V145H436.352V122.6H452.704V126.088H440.512V141.512ZM462.333 145V126.12H454.909V122.6H473.917V126.12H466.493V145H462.333ZM472.746 145L482.826 122.6H486.922L497.034 145H492.682L484.01 124.808H485.674L477.034 145H472.746ZM477.386 139.816L478.506 136.552H490.602L491.722 139.816H477.386Z" fill="white"/>
<defs>
<clipPath id="clip0_921_12666">
<rect width="124" height="160" fill="white"/>
</clipPath>
</defs>
</svg>
