<svg width="24" height="31" viewBox="0 0 24 31" fill="none" xmlns="http://www.w3.org/2000/svg">
<path d="M12.0663 29.5864L6.2477 20.3974C6.2477 20.3974 2.17737 14.7689 1.98723 13.5608C1.79709 12.3526 0.46106 9.06137 1.36633 7.04218C2.27159 5.023 2.35236 4.89512 2.35236 4.89512C2.35236 4.89512 0.604085 3.59106 1.19133 2.49397C1.77858 1.39688 2.79658 0.999776 3.38551 1.09569C3.97444 1.1916 4.94365 1.84279 4.9285 2.12884C4.91336 2.41489 5.18258 2.462 5.18258 2.462C5.18258 2.462 6.81981 1.53991 8.99884 1.55505C11.1779 1.5702 15.2953 1.33294 16.4395 1.63414C17.5837 1.93533 18.8878 2.49229 18.8878 2.49229C18.8878 2.49229 19.9058 0.695216 21.05 1.04521C22.1942 1.3952 23.1651 2.33244 22.9413 3.19227C22.7192 4.05043 21.5582 4.87829 21.5582 4.87829C21.5582 4.87829 23.1483 7.59746 22.9884 9.7277C22.8302 11.8579 21.4942 15.2451 20.3803 17.0405C19.2681 18.8376 12.0663 29.5864 12.0663 29.5864Z" fill="white"/>
<path d="M2.51645 4.79983C2.38184 4.77627 -0.226274 8.17018 1.87199 13.0347C3.97026 17.8993 8.20045 23.4638 8.20045 23.4638L12.1109 29.5062C12.1109 29.5062 11.9679 28.113 9.12254 22.7975C7.556 19.8697 3.30393 14.7056 2.3179 11.3655C1.33186 8.02716 3.26355 4.64839 2.51645 4.79983Z" fill="#C0BFE1"/>
<path d="M3.17087 1.17961C3.17087 1.17961 1.79951 1.95531 1.79951 2.99182C1.79951 4.02834 2.64588 4.85284 2.64588 4.85284L1.5387 4.34468C1.5387 4.34468 0.648573 2.96995 1.15673 2.42141C1.6649 1.87286 2.51632 1.16615 2.62737 1.16615C2.74011 1.16446 3.17087 1.17961 3.17087 1.17961Z" fill="#C0BFE1"/>
<path d="M20.7656 1.18143C20.7656 1.18143 22.137 1.95713 22.137 2.99365C22.137 4.03016 21.2906 4.85466 21.2906 4.85466L22.3978 4.3465C22.3978 4.3465 23.2879 2.97177 22.7798 2.42323C22.2716 1.87468 21.4202 1.16797 21.3091 1.16797C21.1981 1.16797 20.7656 1.18143 20.7656 1.18143Z" fill="#C0BFE1"/>
<path d="M22.0513 1.53409C20.2559 0.250227 19.3624 1.64515 18.9989 2.54705C17.8564 1.88913 16.5372 1.50717 15.1288 1.50717H8.88451C7.47276 1.50717 6.15019 1.87735 5.00599 2.52517C4.63581 1.62327 3.744 0.262005 1.96207 1.53409C-0.0251422 2.95425 1.62722 4.37441 2.40629 4.90613C1.54141 6.16643 1.03325 7.69765 1.03325 9.35674C1.03325 13.7316 5.28026 19.0858 6.01726 20.1392C7.7016 22.5454 12.169 29.6882 12.169 29.6882C12.169 29.6882 16.6365 22.5454 18.3208 20.1392C19.179 18.9142 22.9818 13.6004 22.9818 9.35674C22.9818 7.72962 22.4635 6.19672 21.5818 4.92464C22.3457 4.40974 24.062 2.97276 22.0513 1.53409Z" stroke="#403F4C" stroke-width="0.64839" stroke-miterlimit="10" stroke-linecap="round"/>
<path d="M6.78122 10.8574C7.50608 10.8574 8.09369 10.2697 8.09369 9.54489C8.09369 8.82003 7.50608 8.23242 6.78122 8.23242C6.05636 8.23242 5.46875 8.82003 5.46875 9.54489C5.46875 10.2697 6.05636 10.8574 6.78122 10.8574Z" fill="#C0BFE1"/>
<path d="M7.07028 10.5703C7.79514 10.5703 8.38275 9.98264 8.38275 9.25778C8.38275 8.53292 7.79514 7.94531 7.07028 7.94531C6.34543 7.94531 5.75781 8.53292 5.75781 9.25778C5.75781 9.98264 6.34543 10.5703 7.07028 10.5703Z" fill="#403F4C" stroke="#403F4C" stroke-width="0.64839" stroke-miterlimit="10" stroke-linecap="round"/>
<path d="M7.54693 9.3091C7.76617 9.2633 7.90245 9.02779 7.85133 8.78308C7.80021 8.53838 7.58104 8.37713 7.36181 8.42293C7.14257 8.46873 7.00629 8.70423 7.05741 8.94894C7.10853 9.19365 7.3277 9.3549 7.54693 9.3091Z" fill="white"/>
<path d="M16.9414 10.8554C17.6662 10.8554 18.2538 10.2678 18.2538 9.54294C18.2538 8.81808 17.6662 8.23047 16.9414 8.23047C16.2165 8.23047 15.6289 8.81808 15.6289 9.54294C15.6289 10.2678 16.2165 10.8554 16.9414 10.8554Z" fill="#C0BFE1"/>
<path d="M17.2265 10.5703C17.9514 10.5703 18.539 9.98264 18.539 9.25778C18.539 8.53292 17.9514 7.94531 17.2265 7.94531C16.5017 7.94531 15.9141 8.53292 15.9141 9.25778C15.9141 9.98264 16.5017 10.5703 17.2265 10.5703Z" fill="#403F4C" stroke="#403F4C" stroke-width="0.64839" stroke-miterlimit="10" stroke-linecap="round"/>
<path d="M17.7071 9.3091C17.9263 9.2633 18.0626 9.02779 18.0115 8.78308C17.9604 8.53838 17.7412 8.37713 17.522 8.42293C17.3027 8.46873 17.1664 8.70423 17.2176 8.94894C17.2687 9.19365 17.4879 9.3549 17.7071 9.3091Z" fill="white"/>
<path d="M14.6497 15.0936C14.6497 14.3634 14.5874 13.0492 13.8891 12.5158C13.2901 12.0581 12.3041 12.5225 12.3041 12.5225C12.3041 12.5225 11.3231 12.0733 10.5827 12.4889C9.66231 13.0055 9.34766 14.1985 9.34766 15.5092C9.34766 16.82 10.4986 18.1258 12.225 18.1258C13.9514 18.1258 14.3872 17.3585 14.6648 17.0169L14.2761 16.6703C13.9463 17.0405 13.6721 17.584 12.2687 17.584C10.8654 17.584 9.91976 16.4801 9.91976 15.6035H14.6127C14.6379 15.4874 14.6497 15.3225 14.6497 15.0936ZM13.7192 14.4845C13.7192 14.4963 13.7091 14.5081 13.6956 14.5081H13.5879C13.5879 14.5081 13.5476 14.5602 13.4887 14.5871C13.4298 14.6124 13.381 14.6158 13.381 14.6158H11.2356C11.2356 14.6158 11.1447 14.6023 11.0909 14.5653C11.037 14.5299 11.0219 14.5081 11.0219 14.5081H10.9092C10.8974 14.5081 10.8856 14.498 10.8856 14.4845V14.4778C10.8856 14.4643 10.8957 14.4542 10.9092 14.4542H11.101C11.101 14.4542 11.1498 13.3252 12.2014 13.2562L12.1981 13.2494C12.1947 13.2393 12.2014 13.2292 12.2132 13.2292H12.2469L12.2485 13.2259C12.2553 13.2107 12.2586 13.1939 12.2586 13.1754C12.2586 13.1569 12.2553 13.1401 12.2452 13.1232H12.2115C12.2014 13.1232 12.193 13.1148 12.193 13.1047V13.0879C12.193 13.0879 12.119 13.0593 12.119 12.9987C12.119 12.9381 12.1998 12.8826 12.3058 12.8826C12.4118 12.8826 12.4875 12.9415 12.4875 12.9987C12.4875 13.0559 12.4134 13.0879 12.4134 13.0879V13.1047C12.4134 13.1148 12.405 13.1232 12.3949 13.1232H12.3562L12.3529 13.13C12.3411 13.1586 12.3394 13.1889 12.3512 13.2192L12.3546 13.2309H12.3882C12.3983 13.2309 12.405 13.241 12.4017 13.2494L12.3983 13.2579C13.4584 13.3218 13.4971 14.4559 13.4971 14.4559H13.6923C13.7057 14.4559 13.7158 14.466 13.7158 14.4795V14.4845H13.7192Z" fill="#403F4C"/>
</svg>
