<svg width="162" height="176" viewBox="0 0 162 176" fill="none" xmlns="http://www.w3.org/2000/svg">
<path d="M158.23 155.69V41.72C158.23 41.72 155.41 7.25 119.96 4H42.27C6.81998 7.24 4 41.72 4 41.72V155.68V154.67C4 164.29 11.8 172.1 21.42 172.1C31.04 172.1 38.84 164.29 38.84 154.67V155.13V70.48V70.4702C38.84 64.3302 43.22 59.3302 48.63 59.3302C54.03 59.3302 58.41 64.3202 58.41 70.4702V124.86V129.5V110.78C58.41 104.65 63.38 99.6802 69.51 99.6802C75.65 99.6802 80.62 104.65 80.62 110.78V110.21L80.7099 129.51L80.66 117.76C80.6411 117.48 80.62 117.18 80.62 116.88C80.62 116.62 80.6313 116.36 80.6389 116.1C81.0189 109.89 85.8489 104.98 91.7489 104.98C97.8989 104.98 102.899 110.31 102.899 116.89V129.51V123.98C102.899 117.87 107.489 112.91 113.149 112.91C118.809 112.91 123.389 117.87 123.389 123.98V123.05V154.67V154.68C123.389 164.3 131.189 172.1 140.809 172.1C150.439 172.1 158.239 164.3 158.239 154.68" stroke="url(#paint0_linear_1362_10387)" stroke-width="6.99999" stroke-miterlimit="10"/>
<path d="M98.1699 39.2598H63.0799C59.5399 39.2598 56.6699 36.7498 56.6699 33.6598C56.6699 30.5698 59.5499 28.0698 63.0799 28.0698H98.1699C101.71 28.0698 104.58 30.5698 104.58 33.6598C104.591 36.7498 101.71 39.2598 98.1699 39.2598Z" stroke="#870987" stroke-width="6.99999" stroke-miterlimit="10"/>
<path d="M81.63 172.49C88.3292 172.49 93.76 167.059 93.76 160.36C93.76 153.661 88.3292 148.23 81.63 148.23C74.9308 148.23 69.5 153.661 69.5 160.36C69.5 167.059 74.9308 172.49 81.63 172.49Z" stroke="#0D010D" stroke-width="6.99999" stroke-miterlimit="10"/>
<path d="M58.3999 132.44C60.3329 132.44 61.8999 131.088 61.8999 129.42C61.8999 127.752 60.3329 126.4 58.3999 126.4C56.4669 126.4 54.8999 127.752 54.8999 129.42C54.8999 131.088 56.4669 132.44 58.3999 132.44Z" fill="#1F021F"/>
<path d="M80.6899 132.44C82.6229 132.44 84.1899 131.088 84.1899 129.42C84.1899 127.752 82.6229 126.4 80.6899 126.4C78.7569 126.4 77.1899 127.752 77.1899 129.42C77.1899 131.088 78.7569 132.44 80.6899 132.44Z" fill="#1F021F"/>
<path d="M102.89 132.44C104.823 132.44 106.39 131.088 106.39 129.42C106.39 127.752 104.823 126.4 102.89 126.4C100.957 126.4 99.3901 127.752 99.3901 129.42C99.3901 131.088 100.957 132.44 102.89 132.44Z" fill="#1F021F"/>
<defs>
<linearGradient id="paint0_linear_1362_10387" x1="81.1112" y1="0.5058" x2="81.1112" y2="175.608" gradientUnits="userSpaceOnUse">
<stop offset="4.47534e-07" stop-color="#9C0A9C"/>
<stop offset="0.825" stop-color="#0D010D"/>
</linearGradient>
</defs>
</svg>
