<?xml version="1.0" encoding="utf-8"?>
<!-- Generator: Adobe Illustrator 24.0.2, SVG Export Plug-In . SVG Version: 6.00 Build 0)  -->
<svg version="1.1" id="Layer_1" xmlns="http://www.w3.org/2000/svg" xmlns:xlink="http://www.w3.org/1999/xlink" x="0px" y="0px"
	 viewBox="0 0 283.46 283.46" style="enable-background:new 0 0 283.46 283.46;" xml:space="preserve">
<style type="text/css">
	.st0{fill:#6BC8F2;}
	.st1{fill:#FFFFFF;}
	.st2{fill:#C0BFE1;}
	.st3{fill:#56839F;stroke:#56839F;stroke-width:0.8265;stroke-miterlimit:10;}
	.st4{fill:#56839F;stroke:#56839F;stroke-width:1.0006;stroke-miterlimit:10;}
	.st5{fill:#56839F;stroke:#56839F;stroke-miterlimit:10;}
	.st6{fill:none;stroke:#403F4C;stroke-width:2.8346;stroke-linecap:round;stroke-miterlimit:10;}
	.st7{fill:#403F4C;stroke:#403F4C;stroke-width:2.8346;stroke-linecap:round;stroke-miterlimit:10;}
	.st8{fill:#403F4C;}
</style>
<rect x="0" y="0" class="st0" width="283.46" height="283.46"/>
<g>
	<g>
		<path class="st1" d="M142.12,187.4l-34.58-54.61c0,0-24.19-33.45-25.32-40.63c-1.13-7.18-9.07-26.74-3.69-38.74
			s5.86-12.76,5.86-12.76s-10.39-7.75-6.9-14.27s9.54-8.88,13.04-8.31s9.26,4.44,9.17,6.14c-0.09,1.7,1.51,1.98,1.51,1.98
			s9.73-5.48,22.68-5.39s37.42-1.32,44.22,0.47s14.55,5.1,14.55,5.1s6.05-10.68,12.85-8.6c6.8,2.08,12.57,7.65,11.24,12.76
			c-1.32,5.1-8.22,10.02-8.22,10.02s9.45,16.16,8.5,28.82c-0.94,12.66-8.88,32.79-15.5,43.46
			C184.92,123.52,142.12,187.4,142.12,187.4z"/>
		<path class="st2" d="M85.38,40.09c-0.8-0.14-16.3,20.03-3.83,48.94s37.61,61.98,37.61,61.98l23.24,35.91
			c0,0-0.85-8.28-17.76-39.87c-9.31-17.4-34.58-48.09-40.44-67.94C78.34,59.27,89.82,39.19,85.38,40.09z"/>
		<path class="st2" d="M89.26,18.59c0,0-8.15,4.61-8.15,10.77s5.03,11.06,5.03,11.06l-6.58-3.02c0,0-5.29-8.17-2.27-11.43
			s8.08-7.46,8.74-7.46C86.7,18.5,89.26,18.59,89.26,18.59z"/>
		<polygon class="st3" points="161.82,172.84 153.7,171.28 152.76,172.25 161.11,173.74 		"/>
		<polyline class="st3" points="160.07,175.58 151.95,174.02 151.02,174.99 159.36,176.48 		"/>
		<g>
			<g>
				<path class="st4" d="M166.14,232.03l2.32-1.94l-16.47-15.26l-2.49,1.78l6.04,5.59l-7.22,5.33l-6.16-7.25l6.28-4.65l-0.51-0.47
					l-6.21,4.59l-1.51-1.78l5.76-4.64l-1.74-1.49l-8.04,6.47l-6.52-0.5l10.69-21.48l20.15,2.4l0.72-0.58l-28.55-3.4l3.16-5.03
					l-0.86-0.2l-3.22,5.12l-8.89-1.06l3.59-6l-0.87-0.2l-3.64,6.09l-10.86-1.29l-4.92,4.29l-10.91-2.53l11.53-13.18l-2.54-0.58
					l-9.84,13.56l-5.89-1.36l-0.2,0.68l17.19,3.98l-7.61,6.64l-11.64-3.5l-0.03,0.03l2.3-7.83l-1.15-0.26l-3.28,12.01l-0.09,0.32
					l-2.96,10.09l0.9,0.26l0.67-2.28l9.78,1.47L91.3,217l-3.53-0.53l4.25,1.21l3.42-9.12l15.35,1.74l0,0l-4.85,11.35l0.87,0.25
					l2.14-5l0.15,0.01l19.33,1.48l-4.21,8.46l0.86,0.24l4.29-8.64l6.09,0.47l-10.21,8.22l2.65,0.76l11.56-9.31l14.1,16.62l1.66,0.47
					l-1.8-2.12l7.93-5.96l2.23,2.06l-8.36,6.02l1.05,0.3l7.81-5.85L166.14,232.03z M111.39,192.9l16.06,1.91l-5.61,7.19l-17.98-2.54
					L111.39,192.9z M92.67,213.36l-9.84-1.48l1.35-4.6l10.32,1.17L92.67,213.36z M84.37,206.63l1.68-5.74l12.02,3.61l5.11-4.46
					l19.08,2.69l6.1-7.83l11.09,1.32l-7.84,15.75L84.37,206.63z M128.75,217.76l-19.27-1.48l-0.25-0.02l2.51-5.86l0,0l19.57,2.22
					L128.75,217.76z M148.76,228.06l7.29-5.38l2.22,2.05l-7.59,5.57L148.76,228.06z M152.99,233.04l-1.88-2.21l7.66-5.62l2.08,1.93
					L152.99,233.04z"/>
				<path class="st5" d="M150.02,186.66l3.95-1.89l0.8-0.38l16.36,5.82l-5.03,4.05l2.81,0.63l4.49-3.61l8.05-1.05l-2.13,14.38
					l-9.15,0.97c-1.63,0.17-3.25,0.49-4.83,0.93l0.42,0.51c1.41-0.38,2.86-0.66,4.32-0.82l16.07-1.71l1-0.11l12.63-1.34l-0.1,3.41
					l2.55-0.28l0.47-21.02l-13.12,2.03l0,0l5.54-13.62l-0.59-0.17l-2.25-0.64l-6.05,14.87l-4.78,0.62l5.54-16.93l-0.92-0.17
					l-14.14-2.19l0.78-1.78l-0.87-0.25l-0.83,1.89l-13.79-2.15l-0.71,1.22l7.14,1.33l-8.9,15.16 M146.33,181.39l3.17,4.63
					l-2.74,3.84l0.85,0.19l2.41-3.39l0.6-0.29 M133.02,172.88l-36.17-0.4l-0.64,0.63l15.25,0.17l-4.63,7.5l2.81,0.64l5-8.1
					l13.98,0.16l-7.24,10.61l0.86,0.19l7.36-10.8l3.7,0.04 M123.08,157.51l-7.34,13.99l-17.7-0.2l-0.64,0.63l35.35,0.4
					 M129.74,157.28 M133,171.7l-16.28-0.18l7.58-14.45 M164.32,168.47l1.02,0.16l-9.18,15.45l-0.8-0.28L164.32,168.47z
					 M172.04,189.47l-0.23,0.18l-14.84-5.29l9.27-15.6l14.04,2.17l-5.26,18.14L172.04,189.47z M180.43,188.37l-4.4,0.57l5.18-17.87
					l4.65,0.72L180.43,188.37z M182.45,190.09l17.53-2.29c-0.01,1.49-0.05,5.21-0.12,10.09l-18.39-1.14L182.45,190.09z
					 M180.33,204.5l1.05-7.1l18.47,1.14c-0.02,1.23-0.04,2.53-0.06,3.89L180.33,204.5z"/>
				<path class="st5" d="M103.28,182.32l22.33,5.08l0.87,0.2l8.52,1.94l0.86,0.2l27.96,6.36l-2.57,2.07l-0.72,0.58l-16.29,13.11l0,0
					l1.74,1.49l1.96,1.82l0.51,0.47l1.06,0.98l0,0l2.49-1.78l5.76-4.14c1.99-1.43,4.41-2.59,7-3.4l13.37,14.85l1.2-0.09
					l-13.55-15.06l-0.42-0.51l0,0l-0.04,0.01l-0.23,0.07c-2.87,0.83-5.56,2.07-7.78,3.62c0,0-0.01,0-0.01,0.01
					c-0.07,0.05-0.14,0.1-0.21,0.15l-5.58,4.01l-3.16-2.92l20.58-16.57l0,0l-2.81-0.63l-18.49-4.21l-0.85-0.19l-24.52-5.58
					l-0.86-0.19l-11.75-2.67l-2.81-0.64l-2.54-0.58L103.28,182.32z"/>
			</g>
		</g>
		<path class="st2" d="M193.82,18.59c0,0,8.15,4.61,8.15,10.77s-5.03,11.06-5.03,11.06l6.58-3.02c0,0,5.29-8.17,2.27-11.43
			s-8.08-7.46-8.74-7.46S193.82,18.59,193.82,18.59z"/>
		<path class="st6" d="M201.46,20.69c-10.67-7.63-15.98,0.66-18.14,6.02c-6.79-3.91-14.63-6.18-23-6.18h-37.11
			c-8.39,0-16.25,2.2-23.05,6.05c-2.2-5.36-7.5-13.45-18.09-5.89c-11.81,8.44-1.99,16.88,2.64,20.04
			c-5.14,7.49-8.16,16.59-8.16,26.45c0,26,25.24,57.82,29.62,64.08c10.01,14.3,36.56,56.75,36.56,56.75s26.55-42.45,36.56-56.75
			c5.1-7.28,27.7-38.86,27.7-64.08c0-9.67-3.08-18.78-8.32-26.34C203.21,37.78,213.41,29.24,201.46,20.69z"/>
		<g>
			<g>
				<circle class="st2" cx="110.72" cy="68.29" r="7.8"/>
				<g>
					<circle class="st7" cx="112.43" cy="66.59" r="7.8"/>
				</g>
				
					<ellipse transform="matrix(0.9789 -0.2045 0.2045 0.9789 -10.7173 24.8132)" class="st1" cx="114.72" cy="64.27" rx="2.41" ry="2.69"/>
			</g>
			<g>
				<circle class="st2" cx="171.1" cy="68.29" r="7.8"/>
				<circle class="st7" cx="172.8" cy="66.59" r="7.8"/>
				
					<ellipse transform="matrix(0.9789 -0.2045 0.2045 0.9789 -9.4419 37.1576)" class="st1" cx="175.1" cy="64.27" rx="2.41" ry="2.69"/>
			</g>
		</g>
		<g>
			<path class="st8" d="M157.47,101.27c0-4.34-0.37-12.15-4.52-15.32c-3.56-2.72-9.42,0.04-9.42,0.04s-5.83-2.67-10.23-0.2
				c-5.47,3.07-7.34,10.16-7.34,17.95s6.84,15.55,17.1,15.55c10.26,0,12.85-4.56,14.5-6.59l-2.31-2.06
				c-1.96,2.2-3.59,5.43-11.93,5.43s-13.96-6.56-13.96-11.77h27.89C157.4,103.61,157.47,102.63,157.47,101.27z M151.94,97.65
				c0,0.07-0.06,0.14-0.14,0.14h-0.64c0,0-0.24,0.31-0.59,0.47c-0.35,0.15-0.64,0.17-0.64,0.17h-12.75c0,0-0.54-0.08-0.86-0.3
				c-0.32-0.21-0.41-0.34-0.41-0.34h-0.67c-0.07,0-0.14-0.06-0.14-0.14v-0.04c0-0.08,0.06-0.14,0.14-0.14h1.14
				c0,0,0.29-6.71,6.54-7.12l-0.02-0.04c-0.02-0.06,0.02-0.12,0.09-0.12h0.2l0.01-0.02c0.04-0.09,0.06-0.19,0.06-0.3
				c0-0.11-0.02-0.21-0.08-0.31h-0.2c-0.06,0-0.11-0.05-0.11-0.11v-0.1c0,0-0.44-0.17-0.44-0.53c0-0.36,0.48-0.69,1.11-0.69
				c0.63,0,1.08,0.35,1.08,0.69c0,0.34-0.44,0.53-0.44,0.53v0.1c0,0.06-0.05,0.11-0.11,0.11h-0.23l-0.02,0.04
				c-0.07,0.17-0.08,0.35-0.01,0.53l0.02,0.07h0.2c0.06,0,0.1,0.06,0.08,0.11l-0.02,0.05c6.3,0.38,6.53,7.12,6.53,7.12h1.16
				c0.08,0,0.14,0.06,0.14,0.14V97.65z"/>
		</g>
		<polygon class="st3" points="107.11,171.66 113.91,159.52 111.5,160.7 105.13,171.47 		"/>
		<polygon class="st3" points="110.36,176.21 91.37,176.21 89.99,177.58 109.93,177.58 		"/>
	</g>
	<g>
		<path class="st8" d="M107.94,248.48h-9.26v4.98h8.53c0.63,0,1.1,0.14,1.4,0.42c0.31,0.28,0.46,0.65,0.46,1.11
			c0,0.46-0.15,0.84-0.46,1.13c-0.3,0.29-0.78,0.44-1.41,0.44h-8.53v5.77h9.58c0.65,0,1.13,0.15,1.46,0.45
			c0.33,0.3,0.49,0.7,0.49,1.2c0,0.48-0.16,0.87-0.49,1.17c-0.33,0.3-0.81,0.45-1.46,0.45H97.09c-0.89,0-1.54-0.2-1.93-0.59
			c-0.39-0.4-0.59-1.04-0.59-1.92v-15.25c0-0.59,0.09-1.07,0.26-1.45c0.17-0.37,0.45-0.65,0.82-0.82c0.37-0.17,0.85-0.26,1.43-0.26
			h10.85c0.66,0,1.14,0.15,1.46,0.44c0.32,0.29,0.48,0.67,0.48,1.14c0,0.48-0.16,0.87-0.48,1.16
			C109.08,248.33,108.59,248.48,107.94,248.48z"/>
		<path class="st8" d="M126.46,263.3l-0.97-2.55h-8.25l-0.97,2.6c-0.38,1.01-0.7,1.7-0.97,2.06c-0.27,0.35-0.71,0.53-1.32,0.53
			c-0.52,0-0.97-0.19-1.37-0.57c-0.4-0.38-0.59-0.81-0.59-1.29c0-0.28,0.05-0.56,0.14-0.86c0.09-0.29,0.25-0.71,0.46-1.23
			l5.19-13.18c0.15-0.38,0.33-0.83,0.53-1.36c0.21-0.53,0.43-0.97,0.66-1.32c0.24-0.35,0.54-0.63,0.93-0.85
			c0.38-0.22,0.86-0.33,1.42-0.33c0.57,0,1.05,0.11,1.43,0.33s0.69,0.5,0.93,0.84c0.24,0.34,0.43,0.71,0.59,1.1
			c0.16,0.39,0.37,0.92,0.62,1.57l5.3,13.09c0.42,1,0.62,1.72,0.62,2.17c0,0.47-0.2,0.9-0.59,1.29c-0.39,0.39-0.87,0.59-1.42,0.59
			c-0.32,0-0.6-0.06-0.83-0.17c-0.23-0.12-0.42-0.27-0.58-0.47c-0.16-0.2-0.33-0.5-0.5-0.91S126.59,263.61,126.46,263.3z
			 M118.32,257.67h6.06l-3.06-8.37L118.32,257.67z"/>
		<path class="st8" d="M144.55,248.7h-4.48v14.74c0,0.85-0.19,1.48-0.57,1.89c-0.38,0.41-0.87,0.62-1.47,0.62
			c-0.61,0-1.11-0.21-1.49-0.62c-0.38-0.42-0.57-1.04-0.57-1.88V248.7h-4.48c-0.7,0-1.22-0.15-1.56-0.46
			c-0.34-0.31-0.51-0.72-0.51-1.23c0-0.53,0.18-0.94,0.53-1.25c0.35-0.3,0.87-0.46,1.54-0.46h13.07c0.71,0,1.24,0.16,1.58,0.47
			c0.35,0.31,0.52,0.72,0.52,1.23c0,0.51-0.18,0.92-0.53,1.23C145.77,248.54,145.25,248.7,144.55,248.7z"/>
		<path class="st8" d="M163.45,262.4l-3.28-12.17l-3.32,12.17c-0.26,0.92-0.46,1.58-0.62,1.99s-0.42,0.76-0.8,1.08
			c-0.38,0.32-0.88,0.48-1.51,0.48c-0.51,0-0.92-0.09-1.25-0.28c-0.33-0.19-0.59-0.46-0.8-0.8c-0.2-0.35-0.37-0.76-0.5-1.23
			c-0.13-0.47-0.24-0.92-0.35-1.32l-3.38-13.66c-0.2-0.79-0.3-1.4-0.3-1.81c0-0.53,0.18-0.97,0.55-1.33
			c0.37-0.36,0.83-0.54,1.37-0.54c0.75,0,1.25,0.24,1.51,0.72c0.26,0.48,0.48,1.18,0.68,2.09l2.66,11.85l2.98-11.09
			c0.22-0.85,0.42-1.49,0.59-1.94c0.18-0.44,0.46-0.83,0.86-1.15s0.94-0.48,1.62-0.48c0.69,0,1.23,0.17,1.61,0.5
			c0.38,0.34,0.65,0.7,0.8,1.1c0.15,0.4,0.35,1.05,0.59,1.96l3,11.09l2.66-11.85c0.13-0.62,0.25-1.1,0.37-1.45
			c0.12-0.35,0.31-0.67,0.59-0.94c0.28-0.28,0.69-0.42,1.22-0.42s0.99,0.18,1.36,0.53c0.37,0.36,0.56,0.8,0.56,1.34
			c0,0.38-0.1,0.98-0.3,1.81l-3.38,13.66c-0.23,0.92-0.42,1.6-0.57,2.03c-0.15,0.43-0.41,0.81-0.78,1.13
			c-0.36,0.32-0.88,0.48-1.54,0.48c-0.63,0-1.13-0.16-1.51-0.47c-0.38-0.31-0.64-0.67-0.79-1.06
			C163.93,264.02,163.72,263.35,163.45,262.4z"/>
		<path class="st8" d="M180.2,263.44V257l-4.96-7.68c-0.43-0.69-0.74-1.23-0.92-1.62s-0.27-0.72-0.27-1.01
			c0-0.47,0.18-0.88,0.55-1.22c0.36-0.34,0.81-0.51,1.35-0.51c0.56,0,0.99,0.16,1.28,0.48c0.29,0.32,0.73,0.95,1.31,1.9l3.79,6.16
			l3.83-6.16c0.23-0.38,0.42-0.7,0.58-0.96c0.16-0.26,0.33-0.5,0.52-0.73c0.19-0.23,0.4-0.4,0.63-0.52
			c0.23-0.12,0.51-0.18,0.84-0.18c0.52,0,0.95,0.17,1.29,0.5c0.35,0.34,0.52,0.73,0.52,1.17c0,0.36-0.09,0.72-0.26,1.08
			c-0.18,0.36-0.48,0.86-0.9,1.5l-5.08,7.79v6.44c0,0.84-0.19,1.47-0.58,1.88c-0.39,0.42-0.88,0.62-1.48,0.62
			c-0.61,0-1.1-0.21-1.48-0.62C180.39,264.92,180.2,264.29,180.2,263.44z"/>
	</g>
</g>
</svg>
