<svg width="375" height="647" viewBox="0 0 375 647" fill="none" xmlns="http://www.w3.org/2000/svg">
<g clip-path="url(#clip0_651_9316)">
<rect width="375" height="812" transform="translate(0 -108)" fill="white"/>
<path opacity="0.08" fill-rule="evenodd" clip-rule="evenodd" d="M141.364 427.27C146.47 427.232 154.147 427.173 154.32 427V459.338H157.571C157.571 459.338 157.311 469.379 168.819 469.118V509.607H178.897V535.608L185.269 541.388V478.376L211.147 466.836L212.165 504.586H231.303V517.17H239.105V607.274H243.006V533.274H246.062V530.861L246.257 530.796L249.573 529.324V467.814H256.661V465.598L263.293 458.23V454.644H266.739V458.23L273.436 465.598V467.814H280.523V491.807H294.047V536.646C294.894 536.921 295.683 537.316 296.387 537.811V512.475H303.865V506.803H313.618V512.475H321.225V530.861H329.807L330.792 531.418C332.121 530.354 333.218 529.665 334.424 530.079C335.314 530.384 335.952 530.791 336.542 531.169C337.591 531.839 338.493 532.415 340.406 532.165C343.397 531.709 360.367 520.755 362.837 519.06C365.308 517.365 372.785 517.365 374.801 520.299C376.752 523.233 381.758 524.928 381.758 524.928C381.758 524.928 382.733 521.994 384.749 522.842C385.479 523.159 387.615 524.656 390.235 526.494C394.612 529.563 400.343 533.582 403.15 534.643C405.592 535.566 413.78 535.87 421.466 536.156C427.897 536.395 433.976 536.621 436.049 537.185V607.274H438V615.293H429.547V652H-58.0988V615.293H-62V607.274H-37.4226V489.917H-34.7568V482.94L-12.8453 485.809V486.591H-8.16385V489.917H-7.56534L-7.3186 475.442V474.79L-7.25358 472.965L-7.18856 474.725C-7.15557 474.705 -7.11523 474.68 -7.06834 474.649C-6.65298 474.383 -5.72412 473.787 -4.84786 474.139C-4.35382 474.331 -3.99881 474.93 -3.65568 475.51C-3.18594 476.303 -2.73846 477.058 -1.987 476.681V480.724C-1.987 480.724 -3.02731 480.984 -4.06762 479.354C-4.89782 477.946 -6.60615 478.927 -7.09799 479.209L-7.12354 479.224L-6.94178 489.917H-5.95319V607.274H-1.27178V508.433H25.7763V517.887H37.7399V529.948H40.8609V500.674H44.5019V496.697H45.9324L49.5735 491.807L50.0286 487.83L50.4837 491.481H56.7906L57.2458 487.83L57.6359 491.807L61.342 496.697H62.7724V500.674H66.4135V552.898H66.4785V549.508H68.4291V545.009H72.4603V513.91H80.3277V482.745H80.3889C80.3731 482.708 80.3738 482.707 80.3927 482.745L110.237 482.745V493.633H123.761V514.953H129.157V440.887C129.157 440.887 134.164 442.974 136.895 437.823V427.326C136.873 427.304 138.792 427.29 141.364 427.27ZM66.4785 607.274H66.4135V603.753H66.4785V607.274ZM66.4135 556.484V554.007H66.4785V556.484H66.4135ZM66.4135 560.005V557.593H66.4785V560.005H66.4135ZM66.4135 563.591V561.113H66.4785V563.591H66.4135ZM66.4135 567.112V564.699H66.4785V567.112H66.4135ZM66.4135 570.697V568.22H66.4785V570.697H66.4135ZM66.4135 574.218V571.806H66.4785V574.218H66.4135ZM66.4135 577.804V575.327H66.4785V577.804H66.4135ZM66.4135 581.325V578.912H66.4785V581.325H66.4135ZM66.4135 584.911V582.433H66.4785V584.911H66.4135ZM66.4135 588.431V586.019H66.4785V588.431H66.4135ZM66.4135 591.952V589.54H66.4785V591.952H66.4135ZM66.4135 595.538V593.061H66.4785V595.538H66.4135ZM66.4135 599.059V596.646H66.4785V599.059H66.4135ZM66.4135 602.645V600.167H66.4785V602.645H66.4135Z" fill="#1A96F0"/>
<path opacity="0.08" d="M274.795 139.442C276.643 139.442 278.364 140.017 279.766 140.974C280.977 134.721 286.458 130 293.023 130C296.719 130 300.097 131.531 302.519 133.956C304.304 132.871 306.343 132.297 308.574 132.297C314.31 132.297 319.09 136.38 320.11 141.867C321.321 141.037 322.85 140.527 324.443 140.527C328.395 140.527 331.645 143.589 332.028 147.417H314.374H290.027H266C266.446 142.951 270.206 139.442 274.795 139.442Z" fill="#1A96F0"/>
<path opacity="0.08" d="M310 35.4174C310.446 30.9514 314.206 27.4424 318.731 27.4424C320.58 27.4424 322.301 28.0166 323.703 28.9736C324.914 22.7212 330.395 18 336.959 18C342.249 18 346.838 21.0624 349.069 25.5284C354.231 25.7836 358.31 30.0582 358.31 35.2898C358.31 35.3536 358.31 35.3536 358.31 35.4174H310Z" fill="#1A96F0"/>
<path opacity="0.08" d="M200.233 83.4424C198.384 83.4424 196.663 84.0166 195.261 84.9736C194.05 78.7212 188.569 74 182.005 74C178.308 74 174.93 75.5312 172.509 77.9556C170.724 76.871 168.685 76.2968 166.454 76.2968C160.718 76.2968 155.938 80.38 154.918 85.8668C153.707 85.0374 152.178 84.527 150.584 84.527C146.633 84.527 143.382 87.5894 143 91.4174H160.654H184.937H208.964C208.518 86.9514 204.758 83.4424 200.233 83.4424Z" fill="#1A96F0"/>
<path opacity="0.08" d="M99.2325 184.442C97.3843 184.442 95.6635 185.017 94.2613 185.974C93.0504 179.721 87.5693 175 81.0048 175C77.3083 175 73.9304 176.531 71.5085 178.956C69.724 177.871 67.6845 177.297 65.4539 177.297C59.7179 177.297 54.9379 181.38 53.9181 186.867C52.7072 186.037 51.1776 185.527 49.5843 185.527C45.6328 185.527 42.3824 188.589 42 192.417H59.6541H83.9365H107.964C107.582 187.951 103.821 184.442 99.2325 184.442Z" fill="#1A96F0"/>
<path opacity="0.08" d="M74.3099 35.4174C73.8637 30.9514 70.1035 27.4424 65.5784 27.4424C63.7301 27.4424 62.0093 28.0166 60.6072 28.9736C59.3963 22.7212 53.9152 18 47.3507 18C42.0608 18 37.472 21.0624 35.2413 25.5284C30.0789 25.7836 26 30.0582 26 35.2898C26 35.3536 26 35.3536 26 35.4174H74.3099Z" fill="#1A96F0"/>
</g>
<defs>
<clipPath id="clip0_651_9316">
<rect width="375" height="812" fill="white" transform="translate(0 -108)"/>
</clipPath>
</defs>
</svg>
