<svg width="91" height="51" viewBox="0 0 91 51" fill="none" xmlns="http://www.w3.org/2000/svg">
<rect y="20" width="30" height="30" rx="15" fill="#A58DC5" fill-opacity="0.96"/>
<path d="M8.15723 6.05371H11.563C12.0513 6.05371 12.4883 6.12207 12.874 6.25879C13.2598 6.39062 13.5869 6.58594 13.8555 6.84473C14.124 7.09863 14.3267 7.41113 14.4634 7.78223C14.605 8.14844 14.6758 8.56592 14.6758 9.03467C14.6758 9.45947 14.6001 9.86719 14.4487 10.2578C14.3022 10.6436 14.0801 10.9878 13.7822 11.2905C13.4893 11.5884 13.123 11.8276 12.6836 12.0083C12.2441 12.1841 11.7339 12.272 11.1528 12.272C10.9673 12.272 10.7939 12.2695 10.6328 12.2646C10.4717 12.2598 10.3301 12.2524 10.208 12.2427C10.0664 12.2329 9.93701 12.2207 9.81982 12.2061V16H8.15723V6.05371ZM9.81982 10.9683C9.89307 10.978 10.0029 10.9902 10.1494 11.0049C10.2959 11.0146 10.4717 11.0195 10.6768 11.0195C11.0088 11.0195 11.314 10.9854 11.5923 10.917C11.8755 10.8486 12.1196 10.7412 12.3247 10.5947C12.5298 10.4434 12.6885 10.248 12.8008 10.0088C12.918 9.76953 12.9766 9.479 12.9766 9.13721C12.9766 8.86377 12.9473 8.61719 12.8887 8.39746C12.835 8.17285 12.7471 7.98242 12.625 7.82617C12.5078 7.66504 12.354 7.54297 12.1636 7.45996C11.9731 7.37207 11.7437 7.32812 11.4751 7.32812H9.81982V10.9683ZM15.584 12.2573C15.584 11.6128 15.6694 11.0439 15.8403 10.5508C16.0161 10.0576 16.2603 9.64502 16.5728 9.31299C16.8901 8.98096 17.2661 8.72949 17.7007 8.55859C18.1401 8.3877 18.6235 8.30225 19.1509 8.30225C19.6929 8.30225 20.1812 8.38281 20.6157 8.54395C21.0503 8.7002 21.4189 8.93945 21.7217 9.26172C22.0244 9.58398 22.2563 9.98682 22.4175 10.4702C22.5786 10.9487 22.6592 11.5103 22.6592 12.1548C22.6592 12.7993 22.5762 13.3706 22.4102 13.8687C22.249 14.3667 22.0146 14.7842 21.707 15.1211C21.4043 15.458 21.0356 15.7144 20.6011 15.8901C20.1714 16.061 19.688 16.1465 19.1509 16.1465C18.5942 16.1465 18.0938 16.0659 17.6494 15.9048C17.21 15.7388 16.8364 15.4946 16.5288 15.1724C16.2261 14.8452 15.9917 14.4399 15.8257 13.9565C15.6646 13.4683 15.584 12.9019 15.584 12.2573ZM19.1509 14.938C19.4731 14.938 19.7515 14.8696 19.9858 14.7329C20.2251 14.5913 20.4204 14.3984 20.5718 14.1543C20.7231 13.9053 20.8354 13.6123 20.9087 13.2754C20.9819 12.9336 21.0186 12.5601 21.0186 12.1548C21.0186 11.2808 20.8696 10.6143 20.5718 10.1553C20.2739 9.69629 19.8003 9.4668 19.1509 9.4668C18.8237 9.4668 18.5381 9.5376 18.2939 9.6792C18.0547 9.81592 17.8545 10.0088 17.6934 10.2578C17.5371 10.5068 17.4199 10.8022 17.3418 11.144C17.2637 11.4858 17.2246 11.8569 17.2246 12.2573C17.2246 13.1411 17.3809 13.8101 17.6934 14.2642C18.0107 14.7134 18.4966 14.938 19.1509 14.938ZM23.3403 8.51465H24.915L26.292 14.2935L26.4604 15.231L26.6069 14.3008L27.8813 8.51465H29.8662L31.2065 14.2935L31.3823 15.231L31.5435 14.2935L32.8472 8.51465H34.3706L32.481 16H30.2471L29.0459 10.6533L28.8481 9.56934L28.665 10.6533L27.5737 16H25.2959L23.3403 8.51465ZM35.0737 12.3306C35.0737 11.6274 35.1592 11.022 35.3301 10.5142C35.501 10.0063 35.7402 9.58887 36.0479 9.26172C36.3555 8.93457 36.7217 8.69531 37.1465 8.54395C37.5762 8.3877 38.0474 8.30957 38.5601 8.30957C39.0337 8.30957 39.4561 8.39014 39.8271 8.55127C40.2031 8.70752 40.5205 8.92969 40.7793 9.21777C41.0381 9.50586 41.2358 9.8501 41.3726 10.2505C41.5093 10.6509 41.5776 11.0928 41.5776 11.5762C41.5776 11.7422 41.5703 11.896 41.5557 12.0376C41.541 12.1792 41.5239 12.3013 41.5044 12.4038C41.4849 12.5259 41.4629 12.6357 41.4385 12.7334L36.6338 12.7114C36.6387 13.146 36.6851 13.5073 36.7729 13.7954C36.8608 14.0786 36.9902 14.3032 37.1611 14.4692C37.3369 14.6353 37.5566 14.7524 37.8203 14.8208C38.084 14.8843 38.3965 14.916 38.7578 14.916C39.0654 14.916 39.3413 14.8965 39.5854 14.8574C39.8296 14.8184 40.0371 14.772 40.208 14.7183C40.4033 14.6597 40.5791 14.5913 40.7354 14.5132C40.8086 14.6841 40.8647 14.8428 40.9038 14.9893C40.9478 15.1357 40.9795 15.2627 40.999 15.3701C41.0186 15.4971 41.0332 15.6094 41.043 15.707C40.8818 15.79 40.6865 15.8633 40.457 15.9268C40.2617 15.9805 40.0225 16.0293 39.7393 16.0732C39.4561 16.1221 39.1289 16.1465 38.7578 16.1465C38.1719 16.1465 37.6494 16.0806 37.1904 15.9487C36.7363 15.8169 36.3506 15.6021 36.0332 15.3042C35.7207 15.0015 35.4814 14.6084 35.3154 14.125C35.1543 13.6367 35.0737 13.0386 35.0737 12.3306ZM40.0103 11.6421V11.3931C40.0103 11.0854 39.9712 10.8145 39.8931 10.5801C39.8198 10.3408 39.7173 10.1406 39.5854 9.97949C39.4536 9.81836 39.2974 9.69629 39.1167 9.61328C38.936 9.53027 38.7407 9.48877 38.5308 9.48877C38.2231 9.48877 37.9521 9.53027 37.7178 9.61328C37.4834 9.69141 37.2856 9.81836 37.1245 9.99414C36.9683 10.165 36.8511 10.3872 36.7729 10.6606C36.6948 10.9341 36.6558 11.2612 36.6558 11.6421H40.0103ZM44.0898 8.43408L44.8442 9.2251C44.8979 9.10303 44.9663 8.98828 45.0493 8.88086C45.1372 8.76855 45.2373 8.6709 45.3496 8.58789C45.4668 8.50488 45.5962 8.43896 45.7378 8.39014C45.8843 8.34131 46.043 8.31689 46.2139 8.31689C46.3555 8.31689 46.4922 8.3291 46.624 8.35352C46.7559 8.37305 46.8999 8.40967 47.0562 8.46338C47.061 8.47314 47.0659 8.51221 47.0708 8.58057C47.0806 8.64893 47.0854 8.73438 47.0854 8.83691C47.0854 8.91504 47.0806 9.00781 47.0708 9.11523C47.061 9.21777 47.0439 9.3252 47.0195 9.4375C47 9.54492 46.9683 9.65234 46.9243 9.75977C46.8853 9.86719 46.834 9.95996 46.7705 10.0381L46.6313 10.0747C46.5337 10.0259 46.4238 9.98438 46.3018 9.9502C46.1846 9.91602 46.0625 9.89893 45.9355 9.89893C45.7402 9.89893 45.5767 9.91357 45.4448 9.94287C45.313 9.96729 45.2056 9.99414 45.1226 10.0234C45.0249 10.0576 44.9468 10.0967 44.8882 10.1406V16H43.3208V9.85498L42.7422 9.26172V8.43408H44.0898ZM47.8618 12.3306C47.8618 11.6274 47.9473 11.022 48.1182 10.5142C48.2891 10.0063 48.5283 9.58887 48.8359 9.26172C49.1436 8.93457 49.5098 8.69531 49.9346 8.54395C50.3643 8.3877 50.8354 8.30957 51.3481 8.30957C51.8218 8.30957 52.2441 8.39014 52.6152 8.55127C52.9912 8.70752 53.3086 8.92969 53.5674 9.21777C53.8262 9.50586 54.0239 9.8501 54.1606 10.2505C54.2974 10.6509 54.3657 11.0928 54.3657 11.5762C54.3657 11.7422 54.3584 11.896 54.3438 12.0376C54.3291 12.1792 54.312 12.3013 54.2925 12.4038C54.2729 12.5259 54.251 12.6357 54.2266 12.7334L49.4219 12.7114C49.4268 13.146 49.4731 13.5073 49.561 13.7954C49.6489 14.0786 49.7783 14.3032 49.9492 14.4692C50.125 14.6353 50.3447 14.7524 50.6084 14.8208C50.8721 14.8843 51.1846 14.916 51.5459 14.916C51.8535 14.916 52.1294 14.8965 52.3735 14.8574C52.6177 14.8184 52.8252 14.772 52.9961 14.7183C53.1914 14.6597 53.3672 14.5913 53.5234 14.5132C53.5967 14.6841 53.6528 14.8428 53.6919 14.9893C53.7358 15.1357 53.7676 15.2627 53.7871 15.3701C53.8066 15.4971 53.8213 15.6094 53.8311 15.707C53.6699 15.79 53.4746 15.8633 53.2451 15.9268C53.0498 15.9805 52.8105 16.0293 52.5273 16.0732C52.2441 16.1221 51.917 16.1465 51.5459 16.1465C50.96 16.1465 50.4375 16.0806 49.9785 15.9487C49.5244 15.8169 49.1387 15.6021 48.8213 15.3042C48.5088 15.0015 48.2695 14.6084 48.1035 14.125C47.9424 13.6367 47.8618 13.0386 47.8618 12.3306ZM52.7983 11.6421V11.3931C52.7983 11.0854 52.7593 10.8145 52.6812 10.5801C52.6079 10.3408 52.5054 10.1406 52.3735 9.97949C52.2417 9.81836 52.0854 9.69629 51.9048 9.61328C51.7241 9.53027 51.5288 9.48877 51.3188 9.48877C51.0112 9.48877 50.7402 9.53027 50.5059 9.61328C50.2715 9.69141 50.0737 9.81836 49.9126 9.99414C49.7563 10.165 49.6392 10.3872 49.561 10.6606C49.4829 10.9341 49.4438 11.2612 49.4438 11.6421H52.7983ZM55.5229 12.3892C55.5229 11.6909 55.6206 11.0854 55.8159 10.5728C56.0112 10.0601 56.2749 9.63525 56.6069 9.29834C56.9438 8.96143 57.332 8.7124 57.7715 8.55127C58.2109 8.38525 58.6772 8.30225 59.1704 8.30225C59.356 8.30225 59.522 8.31201 59.6685 8.33154C59.8149 8.34619 59.9395 8.36572 60.042 8.39014C60.1641 8.41455 60.2715 8.44385 60.3643 8.47803V5.46045H61.9243V14.7915L62.5688 15.5386V16H61.104L60.5986 15.4214H60.3496C60.3252 15.4458 60.2739 15.4971 60.1958 15.5752C60.1226 15.6533 60.0151 15.7339 59.8735 15.8169C59.7368 15.8999 59.5659 15.9756 59.3608 16.0439C59.1606 16.1123 58.9238 16.1465 58.6504 16.1465C58.2891 16.1465 57.9229 16.0732 57.5518 15.9268C57.1807 15.7803 56.8438 15.5532 56.541 15.2456C56.2432 14.938 55.999 14.5498 55.8086 14.0811C55.6182 13.6074 55.5229 13.0435 55.5229 12.3892ZM57.1636 12.3892C57.1636 12.8433 57.21 13.2314 57.3027 13.5537C57.4004 13.876 57.5371 14.1421 57.7129 14.3521C57.8887 14.5571 58.1035 14.7085 58.3574 14.8062C58.6113 14.8989 58.897 14.9453 59.2144 14.9453C59.3364 14.9453 59.4658 14.9258 59.6025 14.8867C59.7393 14.8477 59.8638 14.8013 59.9761 14.7476C60.1079 14.6938 60.2373 14.6279 60.3643 14.5498V9.59863C60.3008 9.55957 60.2056 9.52051 60.0786 9.48145C59.9565 9.44238 59.7856 9.42285 59.5659 9.42285C58.7993 9.42285 58.2061 9.67676 57.7861 10.1846C57.3711 10.6875 57.1636 11.4224 57.1636 12.3892ZM68.1279 5.46045H69.6807V8.9541H69.7246C69.7588 8.9248 69.8271 8.87354 69.9297 8.80029C70.0322 8.72705 70.1641 8.65381 70.3252 8.58057C70.4912 8.50732 70.6816 8.44385 70.8965 8.39014C71.1162 8.33154 71.3628 8.30225 71.6362 8.30225C72.0073 8.30225 72.3662 8.36084 72.7129 8.47803C73.0645 8.59521 73.3745 8.79785 73.6431 9.08594C73.9116 9.37402 74.1265 9.76465 74.2876 10.2578C74.4487 10.7461 74.5293 11.3638 74.5293 12.1108C74.5293 12.7847 74.4316 13.373 74.2363 13.876C74.041 14.3789 73.7773 14.7988 73.4453 15.1357C73.1133 15.4727 72.7251 15.7266 72.2808 15.8975C71.8413 16.0635 71.375 16.1465 70.8818 16.1465C70.4375 16.1465 70.0444 16.1294 69.7026 16.0952C69.3657 16.061 69.0801 16.022 68.8457 15.978C68.5723 15.9292 68.333 15.873 68.1279 15.8096V5.46045ZM69.6807 14.8501C69.749 14.8794 69.854 14.9136 69.9956 14.9526C70.1421 14.9917 70.3276 15.0112 70.5522 15.0112C71.3091 15.0112 71.8853 14.7598 72.2808 14.2568C72.6812 13.7539 72.8813 13.0386 72.8813 12.1108C72.8813 11.5933 72.8325 11.166 72.7349 10.8291C72.6421 10.4922 72.5078 10.2261 72.332 10.0308C72.1562 9.83057 71.9414 9.69141 71.6875 9.61328C71.4385 9.53516 71.1553 9.49609 70.8379 9.49609C70.7061 9.49609 70.5718 9.51807 70.4351 9.56201C70.2983 9.60107 70.1738 9.64746 70.0615 9.70117C69.9297 9.75977 69.8027 9.82568 69.6807 9.89893V14.8501ZM75.2983 8.51465H76.9463L78.3745 13.9858L78.6895 15.4507L79.0117 13.9858L80.4839 8.51465H82.1831L78.8506 19.4131H77.2612L78.4844 16H77.5469L75.2983 8.51465Z" fill="black"/>
<g filter="url(#filter0_d_1680_10623)">
<path d="M8.54297 28.7383H10.75V42H8.54297V28.7383ZM13.7773 33.8066L13.0059 33.0156V31.9121H14.8027L15.6426 32.6738L15.9258 32.6152C15.9714 32.5762 16.0755 32.5078 16.2383 32.4102C16.4076 32.3125 16.6126 32.2148 16.8535 32.1172C17.1009 32.0195 17.3809 31.9349 17.6934 31.8633C18.0059 31.7852 18.3346 31.7461 18.6797 31.7461C19.2266 31.7461 19.7116 31.8275 20.1348 31.9902C20.5645 32.153 20.9258 32.3874 21.2188 32.6934C21.5117 32.9928 21.7331 33.3542 21.8828 33.7773C22.0326 34.2005 22.1074 34.6758 22.1074 35.2031V42H20.0078V35.4082C20.0078 34.6986 19.8581 34.1777 19.5586 33.8457C19.2656 33.5072 18.7969 33.3379 18.1523 33.3379C17.8333 33.3379 17.5371 33.3672 17.2637 33.4258C16.9902 33.4779 16.7493 33.5397 16.541 33.6113C16.3001 33.6895 16.0755 33.7806 15.8672 33.8848V42H13.7773V33.8066ZM25.2617 35.3105H31.043V37.0195H25.2617V35.3105ZM34.3438 28.7383H38.8848C39.5358 28.7383 40.1185 28.8294 40.6328 29.0117C41.1471 29.1875 41.5833 29.4479 41.9414 29.793C42.2995 30.1315 42.5697 30.5482 42.752 31.043C42.9408 31.5312 43.0352 32.0879 43.0352 32.7129C43.0352 33.2793 42.9342 33.8229 42.7324 34.3438C42.5371 34.8581 42.2409 35.3171 41.8438 35.7207C41.4531 36.1178 40.9648 36.4368 40.3789 36.6777C39.793 36.9121 39.1126 37.0293 38.3379 37.0293C38.0905 37.0293 37.8594 37.026 37.6445 37.0195C37.4297 37.013 37.2409 37.0033 37.0781 36.9902C36.8893 36.9772 36.7168 36.9609 36.5605 36.9414V42H34.3438V28.7383ZM36.5605 35.291C36.6582 35.304 36.8047 35.3203 37 35.3398C37.1953 35.3529 37.4297 35.3594 37.7031 35.3594C38.1458 35.3594 38.5527 35.3138 38.9238 35.2227C39.3014 35.1315 39.627 34.9883 39.9004 34.793C40.1738 34.5911 40.3854 34.3307 40.5352 34.0117C40.6914 33.6927 40.7695 33.3053 40.7695 32.8496C40.7695 32.485 40.7305 32.1562 40.6523 31.8633C40.5807 31.5638 40.4635 31.3099 40.3008 31.1016C40.1445 30.8867 39.9395 30.724 39.6855 30.6133C39.4316 30.4961 39.1257 30.4375 38.7676 30.4375H36.5605V35.291ZM44.832 27.9375H46.9316V31.2188L46.834 32.7129H46.8926C46.9382 32.6738 47.0456 32.6022 47.2148 32.498C47.3906 32.3874 47.6055 32.2767 47.8594 32.166C48.1198 32.0553 48.4095 31.9577 48.7285 31.873C49.054 31.7884 49.3893 31.7461 49.7344 31.7461C50.2812 31.7461 50.763 31.8275 51.1797 31.9902C51.6029 32.153 51.9577 32.3874 52.2441 32.6934C52.5306 32.9928 52.7454 33.3542 52.8887 33.7773C53.0384 34.2005 53.1133 34.6758 53.1133 35.2031V42H51.0137V35.4082C51.0137 34.6986 50.8704 34.1777 50.584 33.8457C50.304 33.5072 49.8385 33.3379 49.1875 33.3379C48.875 33.3379 48.582 33.3672 48.3086 33.4258C48.0417 33.4779 47.804 33.5397 47.5957 33.6113C47.3548 33.6895 47.1335 33.7806 46.9316 33.8848V42H44.832V27.9375ZM55.2617 37.0098C55.2617 36.1504 55.3757 35.3919 55.6035 34.7344C55.8379 34.0768 56.1634 33.5267 56.5801 33.084C57.0033 32.6413 57.5046 32.306 58.084 32.0781C58.6699 31.8503 59.3145 31.7363 60.0176 31.7363C60.7402 31.7363 61.3913 31.8438 61.9707 32.0586C62.5501 32.2669 63.0417 32.5859 63.4453 33.0156C63.849 33.4453 64.1582 33.9824 64.373 34.627C64.5879 35.265 64.6953 36.0137 64.6953 36.873C64.6953 37.7324 64.5846 38.4941 64.3633 39.1582C64.1484 39.8223 63.8359 40.3789 63.4258 40.8281C63.0221 41.2773 62.5306 41.6191 61.9512 41.8535C61.3783 42.0814 60.7337 42.1953 60.0176 42.1953C59.2754 42.1953 58.6081 42.0879 58.0156 41.873C57.4297 41.6517 56.9316 41.3262 56.5215 40.8965C56.1178 40.4603 55.8053 39.9199 55.584 39.2754C55.3691 38.6243 55.2617 37.8691 55.2617 37.0098ZM60.0176 40.584C60.4473 40.584 60.8184 40.4928 61.1309 40.3105C61.4499 40.1217 61.7103 39.8646 61.9121 39.5391C62.1139 39.207 62.2637 38.8164 62.3613 38.3672C62.459 37.9115 62.5078 37.4134 62.5078 36.873C62.5078 35.7077 62.3092 34.819 61.9121 34.207C61.515 33.5951 60.8835 33.2891 60.0176 33.2891C59.5814 33.2891 59.2005 33.3835 58.875 33.5723C58.556 33.7546 58.2891 34.0117 58.0742 34.3438C57.8659 34.6758 57.7096 35.0697 57.6055 35.5254C57.5013 35.9811 57.4492 36.4759 57.4492 37.0098C57.4492 38.1882 57.6576 39.0801 58.0742 39.6855C58.4974 40.2845 59.1452 40.584 60.0176 40.584ZM66.9219 33.8066L66.1504 33.0156V31.9121H67.9473L68.7871 32.6738L69.0703 32.6152C69.1159 32.5762 69.2201 32.5078 69.3828 32.4102C69.5521 32.3125 69.7572 32.2148 69.998 32.1172C70.2454 32.0195 70.5254 31.9349 70.8379 31.8633C71.1504 31.7852 71.4792 31.7461 71.8242 31.7461C72.3711 31.7461 72.8561 31.8275 73.2793 31.9902C73.709 32.153 74.0703 32.3874 74.3633 32.6934C74.6562 32.9928 74.8776 33.3542 75.0273 33.7773C75.1771 34.2005 75.252 34.6758 75.252 35.2031V42H73.1523V35.4082C73.1523 34.6986 73.0026 34.1777 72.7031 33.8457C72.4102 33.5072 71.9414 33.3379 71.2969 33.3379C70.9779 33.3379 70.6816 33.3672 70.4082 33.4258C70.1348 33.4779 69.8939 33.5397 69.6855 33.6113C69.4447 33.6895 69.2201 33.7806 69.0117 33.8848V42H66.9219V33.8066ZM77.4004 37.1074C77.4004 36.1699 77.5143 35.3626 77.7422 34.6855C77.9701 34.0085 78.2891 33.4518 78.6992 33.0156C79.1094 32.5794 79.5977 32.2604 80.1641 32.0586C80.737 31.8503 81.3652 31.7461 82.0488 31.7461C82.6803 31.7461 83.2435 31.8535 83.7383 32.0684C84.2396 32.2767 84.6628 32.5729 85.0078 32.957C85.3529 33.3411 85.6165 33.8001 85.7988 34.334C85.9811 34.8678 86.0723 35.457 86.0723 36.1016C86.0723 36.3229 86.0625 36.528 86.043 36.7168C86.0234 36.9056 86.0007 37.0684 85.9746 37.2051C85.9486 37.3678 85.9193 37.5143 85.8867 37.6445L79.4805 37.6152C79.487 38.1947 79.5488 38.6764 79.666 39.0605C79.7832 39.4382 79.9557 39.7376 80.1836 39.959C80.418 40.1803 80.7109 40.3366 81.0625 40.4277C81.4141 40.5124 81.8307 40.5547 82.3125 40.5547C82.7227 40.5547 83.0905 40.5286 83.416 40.4766C83.7415 40.4245 84.0182 40.3626 84.2461 40.291C84.5065 40.2129 84.7409 40.1217 84.9492 40.0176C85.0469 40.2454 85.1217 40.457 85.1738 40.6523C85.2324 40.8477 85.2747 41.0169 85.3008 41.1602C85.3268 41.3294 85.3464 41.4792 85.3594 41.6094C85.1445 41.7201 84.8841 41.8177 84.5781 41.9023C84.3177 41.974 83.9987 42.0391 83.6211 42.0977C83.2435 42.1628 82.8073 42.1953 82.3125 42.1953C81.5312 42.1953 80.8346 42.1074 80.2227 41.9316C79.6172 41.7559 79.1029 41.4694 78.6797 41.0723C78.263 40.6686 77.944 40.1445 77.7227 39.5C77.5078 38.849 77.4004 38.0514 77.4004 37.1074ZM83.9824 36.1895V35.8574C83.9824 35.4473 83.9303 35.0859 83.8262 34.7734C83.7285 34.4544 83.5918 34.1875 83.416 33.9727C83.2402 33.7578 83.0319 33.5951 82.791 33.4844C82.5501 33.3737 82.2897 33.3184 82.0098 33.3184C81.5996 33.3184 81.2383 33.3737 80.9258 33.4844C80.6133 33.5885 80.3496 33.7578 80.1348 33.9922C79.9264 34.2201 79.7702 34.5163 79.666 34.8809C79.5618 35.2454 79.5098 35.6816 79.5098 36.1895H83.9824Z" fill="url(#paint0_linear_1680_10623)"/>
</g>
<defs>
<filter id="filter0_d_1680_10623" x="4.54297" y="27.9375" width="85.5293" height="22.2578" filterUnits="userSpaceOnUse" color-interpolation-filters="sRGB">
<feFlood flood-opacity="0" result="BackgroundImageFix"/>
<feColorMatrix in="SourceAlpha" type="matrix" values="0 0 0 0 0 0 0 0 0 0 0 0 0 0 0 0 0 0 127 0" result="hardAlpha"/>
<feOffset dy="4"/>
<feGaussianBlur stdDeviation="2"/>
<feComposite in2="hardAlpha" operator="out"/>
<feColorMatrix type="matrix" values="0 0 0 0 0 0 0 0 0 0 0 0 0 0 0 0 0 0 0.25 0"/>
<feBlend mode="normal" in2="BackgroundImageFix" result="effect1_dropShadow_1680_10623"/>
<feBlend mode="normal" in="SourceGraphic" in2="effect1_dropShadow_1680_10623" result="shape"/>
</filter>
<linearGradient id="paint0_linear_1680_10623" x1="48.5" y1="25" x2="48.5" y2="44" gradientUnits="userSpaceOnUse">
<stop offset="0.353692" stop-color="#500096"/>
<stop offset="0.572444" stop-color="#5A0096"/>
<stop offset="1" stop-color="#695F96"/>
</linearGradient>
</defs>
</svg>
